<svg version="1.1" xmlns="http://www.w3.org/2000/svg" xmlns:xlink="http://www.w3.org/1999/xlink" x="0px" y="0px"
	 viewBox="0 0 336 252" style="enable-background:new 0 0 336 252;" xml:space="preserve">
<style type="text/css">
	.get-support .st0{fill:#FFFFFF;}
	.get-support .st1{fill:#E6E6E6;}
	.get-support .st2{fill:none;stroke:#AAAAAA;stroke-miterlimit:10;}
	.get-support .st3{fill:none;stroke:#AAAAAA;stroke-linecap:round;stroke-miterlimit:10;}
	.get-support .st4{fill:none;stroke:#0064D2;stroke-miterlimit:10;}
	.get-support .st5{fill:none;stroke:#0064D2;stroke-linecap:round;stroke-miterlimit:10;}
	.get-support .st6{fill:none;stroke:#0064D2;stroke-linecap:round;stroke-linejoin:round;stroke-miterlimit:10;}
	.get-support .st7{fill:#FFFFFF;stroke:#0064D2;stroke-linecap:round;stroke-linejoin:round;stroke-miterlimit:10;}
	.get-support .st8{fill:#0064D2;stroke-width:0;}
	.get-support .st9{fill:#DCDEEE;}
	.get-support .st10{fill:#B2E0FD;}
	.get-support .st11{fill:none;stroke:#0064D2;stroke-linejoin:round;stroke-miterlimit:10;}
	.get-support .st12{fill:#FFFFFF;stroke:#0064D2;stroke-miterlimit:10;}
	.get-support .st13{fill:none;stroke:#AAAAAA;stroke-linecap:round;stroke-linejoin:round;stroke-miterlimit:10;}
	.get-support .st14{fill:#AAAAAA;}
</style>
<g class="get-support">
    <g id="Table_stand">
        <g id="white_11_">
            <polyline id="white_12_" class="st0" points="269.6,252 269.6,234.9 279.3,234.9 279.3,252 		"/>
        </g>
        <g id="white_10_">
            <polyline id="neutral-3_76_" class="st0" points="49.4,252 49.4,234.9 59.1,234.9 59.1,252 		"/>
        </g>
        <g id="neutral-5">
            <polygon id="neutral-5_1_" class="st1" points="49.4,246.3 59.1,240.7 59.1,233.2 49.4,233.2 		"/>
        </g>
        <g id="neutral-3_2_">
            <polyline id="neutral-3_3_" class="st2" points="49.4,252 49.4,234.9 59.1,234.9 59.1,252 		"/>
            <g id="neutral-3_72_">
                <polyline id="neutral-3_73_" class="st2" points="49.4,252 49.4,234.9 59.1,234.9 59.1,252 			"/>
            </g>
        </g>
        <g id="neutral-5_3_">
            <circle id="neutral-5_2_" class="st1" cx="54.2" cy="231" r="8.2"/>
        </g>
        <g id="neutral-3_1_">
            <circle id="neutral-3" class="st3" cx="54.2" cy="231" r="8.2"/>
        </g>
        <g id="neutral-5_26_">
            <polygon id="neutral-5_27_" class="st1" points="269.6,246.3 279.3,240.7 279.3,233.2 269.6,233.2 		"/>
        </g>
        <g id="neutral-3_70_">
            <polyline id="neutral-3_71_" class="st2" points="269.6,252 269.6,234.9 279.3,234.9 279.3,252 		"/>
        </g>
        <g id="neutral-5_24_">
            <circle id="neutral-5_25_" class="st1" cx="274.5" cy="231" r="8.2"/>
        </g>
        <g id="neutral-3_68_">
            <circle id="neutral-3_69_" class="st3" cx="274.5" cy="231" r="8.2"/>
        </g>
    </g>
    <g id="Search_bar">
        <g id="white_48_">
            <path id="white_55_" class="st0" d="M292.1,40.4h-145c-0.9,0-1.6-0.7-1.6-1.6V26c0-0.9,0.7-1.6,1.6-1.6h144.9
                c0.9,0,1.6,0.7,1.6,1.6v12.7C293.6,39.7,293,40.4,292.1,40.4z"/>
        </g>
        <g id="neutral-3_133_">
            <path id="neutral-3_134_" class="st2" d="M292.1,40.4h-145c-0.9,0-1.6-0.7-1.6-1.6V26c0-0.9,0.7-1.6,1.6-1.6h144.9
                c0.9,0,1.6,0.7,1.6,1.6v12.7C293.6,39.7,293,40.4,292.1,40.4z"/>
        </g>
        <g id="stroke-1_91_">
            <circle id="stroke-1_100_" class="st4" cx="282.5" cy="31.9" r="3.3"/>
        </g>
        <g id="stroke-1_89_">
            <line id="stroke-1_90_" class="st5" x1="284.9" y1="34.1" x2="287.3" y2="36.7"/>
        </g>
    </g>
    <g id="Lines">
        <g id="neutral-5_42_">
            <rect id="neutral-5_43_" x="222.3" y="59" class="st1" width="68.5" height="2.7"/>
        </g>
        <g id="neutral-5_40_">
            <rect id="neutral-5_41_" x="222.3" y="63.7" class="st1" width="50.5" height="2.7"/>
        </g>
        <g id="neutral-5_38_">
            <rect id="neutral-5_39_" x="222.3" y="84.5" class="st1" width="68.5" height="2.7"/>
        </g>
        <g id="neutral-5_36_">
            <rect id="neutral-5_37_" x="222.3" y="89.3" class="st1" width="50.5" height="2.7"/>
        </g>
        <g id="neutral-5_34_">
            <rect id="neutral-5_35_" x="222.3" y="115.7" class="st1" width="68.5" height="2.7"/>
        </g>
        <g id="neutral-5_32_">
            <rect id="neutral-5_33_" x="222.3" y="120.4" class="st1" width="50.5" height="2.7"/>
        </g>
        <g id="neutral-5_30_">
            <rect id="neutral-5_31_" x="222.3" y="146.6" class="st1" width="68.5" height="2.7"/>
        </g>
        <g id="neutral-5_28_">
            <rect id="neutral-5_29_" x="222.3" y="151.3" class="st1" width="50.5" height="2.7"/>
        </g>
    </g>
    <g id="Character_Legs">
        <g id="white_46_">
            <polyline id="white_47_" class="st0" points="143.5,252 145.2,226 135.3,226 137.1,252 		"/>
        </g>
        <g id="white_44_">
            <polyline id="white_45_" class="st0" points="122.3,252 134.7,230.8 125.9,226.4 115.2,252 		"/>
        </g>
        <g id="stroke-1_87_">
            <polyline id="stroke-1_88_" class="st6" points="143.5,252 145.2,226 135.3,226 137.1,252 		"/>
        </g>
        <g id="stroke-1_85_">
            <polyline id="stroke-1_86_" class="st6" points="122.3,252 134.7,230.8 125.9,226.4 115.2,252 		"/>
        </g>
    </g>
    <g id="Character">
        <g id="white_5_">
            <path id="white_6_" class="st0" d="M144.8,104.7c0,0,13.3-3.6,19.7,5.5s7.4,19.9,7.9,27.3c0.4,7.5,1,17.4-0.3,25.9
                c0,0,4.2,4.3,4.2,12.5s0.1,18.6,0.1,18.6s0.9,6.1-2.7,7.6c-3.6,1.6-5.8,2.7-5.8,2.7l1.1,20.9c0,0-13,3.1-16.4-6.7
                c0,0-1.1-2.8-1.1-4.4c0,0-0.2,9.2-9,11c0,0-6.5,0.8-8.3,0.6l0.3-6.2l-7.8-0.2v-46.1c0,0,0.6-6.5,4.8-10.2c0,0-1.6-7.3-1.7-14.6
                c-0.1-7.3-0.2-15.9,0.9-19.9C130.6,128.7,132.3,109.1,144.8,104.7z"/>
        </g>
        <g id="stroke-1_14_">
            <ellipse id="stroke-1_47_" class="st7" cx="151.4" cy="128.7" rx="13.6" ry="18.6"/>
        </g>
        <g id="stroke-1-filled_8_">
            <circle id="stroke-1-filled_9_" class="st8" cx="146.4" cy="129.9" r="1.2"/>
        </g>
        <g id="stroke-1-filled_6_">
            <circle id="stroke-1-filled_7_" class="st8" cx="156.4" cy="129.9" r="1.2"/>
        </g>
        <g id="stroke-1_13_">
            <path id="stroke-1_46_" class="st7" d="M151.4,130c0,2.8,1.8,2.9,1.8,4.5c0,1.6-1.8,1.7-1.8,1.7"/>
        </g>
        <g id="stroke-1_12_">
            <path id="stroke-1_45_" class="st6" d="M144,127.1c1.3-1.2,3.6-1.2,4.9,0"/>
        </g>
        <g id="stroke-1_11_">
            <path id="stroke-1_44_" class="st6" d="M153.9,127.1c1.3-1.2,3.6-1.2,4.9,0"/>
        </g>
        <g id="stroke-1_10_">
            <path id="stroke-1_43_" class="st6" d="M150.2,140.7c1.5,0.8,3,0.1,3.7-0.6"/>
        </g>
        <g id="shade-2_1_">
            <path id="shade-2_3_" class="st9" d="M165.9,125.6c-0.6-3.9-1.1-7.5-3.4-10.9c-1.5-2.2-3.5-4.3-5.7-5.8c-1.8-1.5-3.9-2.7-6.2-3.5
                h-0.1c-1.5-0.6-2.9-1.1-4.5-1.3c-0.7-0.1-1.1,0.2-1.2,0.7c-0.1,0.3-0.4,0.7-0.9,0.9c0,0-0.1,0-0.1,0.1c-4.9,2.1-8.2,7.3-9.9,12.3
                c0,0.1-0.1,0.2-0.1,0.3c-0.8,1-1.3,2.4-1.7,3c-0.4,0.9-0.7,2.1-0.6,3.3c0,0.2,0,0.6-0.1,0.8c-2.4,6.3-1.9,13.7-1.7,20.2
                c0.2,5.1,0.8,10.1,1.1,15.2c0.1,1.1,1.5,1.3,1.9,0.7c0.2-0.2,0.6-0.4,0.9-0.6c0.1,0,0.2-0.1,0.3-0.1c2.6-1.8,4.9-3.9,7.1-6.3
                c0.9-1,3-3.7,3.3-5.7c0-0.2,0.6-0.8,0.6-1c0.9-2.2-1.1-3.8-2.7-5.4c-2.6-2.8-4-6.3-4.3-10.1c0-0.1,0-0.2,0-0.3
                c0.2-1.3,0.4-2.6,0.7-3.9c0-0.2,0-0.4-0.1-0.7s-0.1-0.6-0.1-0.9c0.4-1.8,1-3.5,1.8-5.2c0.4-0.9,0.9-1.8,1.3-2.7
                c0.1-0.1,0.1-0.2,0.2-0.3s0.2-0.2,0.3-0.3c0.1-0.1,0.2-0.2,0.2-0.4c0.1-0.3,0.3-0.8,0.4-1.1c0.4-0.8,1-1.6,1.6-2.2
                c0.3-0.4,1.1-1.1,1.8-1.5c0.1-0.1,0.3-0.1,0.4-0.1c0.1,0,0.2,0,0.3,0v0.1c1.5,7.5,10.9,6,14.7,11.1c0.1,0.1,0.2,0.2,0.3,0.3
                c0.1,0.3,0.4,0.6,0.8,0.7c0.7,0.1,1.1,0.7,1.2,1.3c0.3,2.8,0.6,5.6,0.7,8.3v0.1c0,0.6-0.2,1.1-0.7,1.3c-0.4,0.3-0.8,0.9-0.3,1.5
                c0.1,0.2,0.2,0.4,0.4,0.7c-0.6-0.2-1.2,0.1-1.5,0.7c-0.2,0.7-0.6,1.2-0.6,1.8c0,0.3-0.2,0.7-0.6,1l0,0c-0.6,0.6-1.1,1-1.3,1.7
                c-0.1,0.3-0.2,0.6-0.6,0.8c-0.1,0-0.1,0.1-0.1,0.1c-0.8,0.8-1.5,1.2-1.5,2.5c0,1.6,0.7,3.3,1.5,4.7c1.1,2.1,2.7,4.2,4.5,5.8
                c0.1,0.1,0.2,0.1,0.3,0.2c0.4,0.8,1.9,0.6,2-0.6C167.1,146.3,167.4,135.9,165.9,125.6z M141.6,149.5L141.6,149.5L141.6,149.5
                L141.6,149.5z"/>
        </g>
        <g id="stroke-1_9_">
            <path id="stroke-1_42_" class="st6" d="M157.7,145.2c0,0,6.2-3.9,7.2-13.7c0.3-6.5-3.5-10.2-9.4-11.4c-6.9-1.2-9.1-7.8-9.1-7.8
                s-11.4,13.5-6.9,25.1c2.7,6,5.7,7.6,5.7,7.6"/>
        </g>
        <g id="stroke-1_28_">
            <path id="stroke-1_41_" class="st6" d="M131.3,163c-1.8-7.1-6.7-59.1,18.1-59.1c5.4,0,10.8,0.9,14.4,5.3c3.5,4.4,5.2,10,6.5,15.4
                c1.2,5.3,1.9,10.7,2.2,16.2c0.4,7.5,0.1,15.1-0.6,22.5"/>
        </g>
        <g id="shade-2">
            <path id="shade-2_2_" class="st10" d="M168.9,224.5c-0.4-4.9-0.9-9.8-1.2-14.7c-0.6-9.1-0.7-18.1-0.4-27.2c0-0.3-0.1-0.4-0.2-0.7
                c0-1.3,0-2.7-0.1-4c-0.1-1.3-2.2-1.5-2.1,0c0.3,7.1-0.7,14.2-3.4,20.7c-1.3,3.5-3.1,6.7-5.3,9.8c-1.7,2.5-3.7,4.9-3.6,8.1
                c0.3,7.6,12.1,11.7,16.4,9.2C168.9,225.6,168.9,224.6,168.9,224.5z"/>
        </g>
        <g id="stroke-1_27_">
            <line id="stroke-1_40_" class="st6" x1="136.6" y1="176.5" x2="134.1" y2="226"/>
        </g>
        <g id="stroke-1_26_">
            <line id="stroke-1_39_" class="st6" x1="166.3" y1="176.5" x2="168.8" y2="226"/>
        </g>
        <g id="stroke-1_25_">
            <path id="stroke-1_38_" class="st6" d="M168.4,219.8l0.2,6.2h-4.9c-12.4,0-12.4-12.4-12.4-12.4c0,12.4-12.4,12.4-12.4,12.4H134
                v-6.2h-7.3l0.1-45.8c0-4.7,2.1-9.3,5.8-12.3l6.3-5.2c0,0,6.2-4.9,6.2-11.1c0,0,0,0,0-0.1"/>
        </g>
        <g id="stroke-1_15_">
            <line id="stroke-1_37_" class="st4" x1="151.4" y1="214.8" x2="151.4" y2="188.8"/>
        </g>
        <g id="stroke-1_16_">
            <path id="stroke-1_49_" class="st4" d="M141.5,154.2c0,0-1.1,21.4,9.9,34.6"/>
        </g>
        <g id="stroke-1_17_">
            <path id="stroke-1_36_" class="st4" d="M161.3,154.2c0,0,1.1,21.4-9.9,34.6"/>
        </g>
        <g id="stroke-1-filled_2_">
            <circle id="stroke-1-filled_3_" class="st8" cx="155.1" cy="197.5" r="1.2"/>
        </g>
        <g id="stroke-1-filled">
            <circle id="stroke-1-filled_1_" class="st8" cx="155.1" cy="206.2" r="1.2"/>
        </g>
        <g id="stroke-1_18_">
            <path id="stroke-1_35_" class="st4" d="M161.3,154.2c-3.3,3.3-5.7,4.9-9.9,4.9s-6.6-1.7-9.9-4.9"/>
        </g>
        <g id="stroke-1_19_">
            <line id="stroke-1_48_" class="st11" x1="126.7" y1="213.6" x2="134.1" y2="213.6"/>
        </g>
        <g id="stroke-1_20_">
            <path id="stroke-1_34_" class="st12" d="M163.9,125.6v12.1h2.5c0,0,3.7,0,3.7-3.7c0-3.7,0-4.8,0-4.8s0-3.7-3.7-3.7
                C166.4,125.6,163.9,125.6,163.9,125.6z"/>
        </g>
        <g id="stroke-1_21_">
            <path id="stroke-1_33_" class="st6" d="M135.6,125.6c0-9,7-16.2,15.5-16.2s15.5,7.3,15.5,16.2"/>
        </g>
        <g id="stroke-1_22_">
            <line id="stroke-1_32_" class="st6" x1="163.9" y1="134.5" x2="158.2" y2="137.6"/>
        </g>
        <g id="stroke-1-filled_4_">
            <circle id="stroke-1-filled_5_" class="st8" cx="158.2" cy="137.6" r="0.8"/>
        </g>
        <g id="shade-1_1_">
            <path id="shade-1_2_" class="st10" d="M164.6,137.9h-0.7v-12.3h0.7c1.7,0,3.1,1.5,3.1,3.1v6C167.7,136.4,166.3,137.9,164.6,137.9z
                "/>
        </g>
        <g id="stroke-1_23_">
            <path id="stroke-1_31_" class="st4" d="M163.9,125.6v12.1h2.5c0,0,3.7,0,3.7-3.7c0-3.7,0-4.8,0-4.8s0-3.7-3.7-3.7
                C166.4,125.6,163.9,125.6,163.9,125.6z"/>
        </g>
        <g id="shade-1">
            <path id="shade-1_3_" class="st10" d="M138.3,137.9v-12.3h-2.5c0,0-3.7,0-3.7,3.7c0,3.7,0,4.8,0,4.8s0,3.7,3.7,3.7
                C135.8,137.9,138.3,137.9,138.3,137.9z"/>
        </g>
        <g id="stroke-1_24_">
            <path id="stroke-1_30_" class="st4" d="M138.3,137.9v-12.3h-2.5c0,0-3.7,0-3.7,3.7c0,3.7,0,4.8,0,4.8s0,3.7,3.7,3.7
                C135.8,137.9,138.3,137.9,138.3,137.9z"/>
        </g>
        <g id="white_4_">
            <path id="white_7_" class="st0" d="M167.9,190.2l0.2,5.6l-20.4,9.6l2.8,7.2l23.2-10.5c0,0,2.6-0.3,2.6-4.8v-6.5L167.9,190.2z"/>
        </g>
        <g id="stroke-1_8_">
            <path id="stroke-1_29_" class="st6" d="M168.9,195.1c-0.4-0.1-1.1,0.1-1.1,0.1l-20.1,10.1l2.8,7.2l23.6-10.7c0,0,2-0.9,2-4.4v-21
                v-2.1c0.1-4.9-2.1-9.6-6.1-12.6l-6.4-5.1c0,0-6.2-4.9-6.2-11.1c0,0,0,0,0-0.1"/>
        </g>
    </g>
    <g id="Table">
        <g id="white_36_">
            <path id="white_37_" class="st0" d="M290,202.3c-0.1-0.1-0.3-0.2-0.6-0.2h-90.7h-65.1H43.1c-0.2,0-0.4,0.1-0.6,0.2l-24.3,28.1
                c-0.4,0.4-0.1,1.2,0.6,1.2h115h65.1h115c0.7,0,1-0.8,0.6-1.2L290,202.3z"/>
        </g>
        <g id="neutral-3_131_">
            <path id="neutral-3_132_" class="st13" d="M290,202.3c-0.1-0.1-0.3-0.2-0.6-0.2h-90.7h-65.1H43.1c-0.2,0-0.4,0.1-0.6,0.2
                l-24.3,28.1c-0.4,0.4-0.1,1.2,0.6,1.2h115h65.1h115c0.7,0,1-0.8,0.6-1.2L290,202.3z"/>
        </g>
    </g>
    <g id="Monitor">
        <g id="white_2_">
            <path id="white_3_" class="st0" d="M138.6,204.5c0,2.1-1.7,3.8-3.8,3.8H52.4c-2.1,0-3.8-1.7-3.8-3.8v-52.6c0-2.1,1.7-3.8,3.8-3.8
                h82.2c2.1,0,3.8,1.7,3.8,3.8C138.6,151.7,138.6,204.5,138.6,204.5z"/>
        </g>
        <g id="neutral-5_4_">
            <path id="neutral-5_7_" class="st1" d="M48.6,151.6v52.8c0,2.1,1.8,3.9,3.9,3.9h50.3c0.3-2.5-1.7-4.5-6.1-6
                c-6.5-2.2-25.6-11.9-33.1-29.5s-6-23.4-9.8-24.5c-0.3-0.1-0.6-0.1-0.8-0.2C50.9,147.5,48.6,149.3,48.6,151.6"/>
        </g>
        <g id="neutral-5_5_">
            <path id="neutral-5_6_" class="st1" d="M84,212.4c0,0,10.2-3,21.1,5.6l-2.2-9H84.8L84,212.4z"/>
        </g>
        <g id="neutral-3_8_">
            <line id="neutral-3_10_" class="st3" x1="74.4" y1="219.2" x2="112.8" y2="219.2"/>
        </g>
        <g id="neutral-3_7_">
            <line id="neutral-3_11_" class="st3" x1="84.6" y1="209" x2="82" y2="219.2"/>
        </g>
        <g id="neutral-3_6_">
            <line id="neutral-3_12_" class="st3" x1="102.6" y1="209" x2="105.2" y2="219.2"/>
        </g>
        <g id="neutral-3_9_">
            <path id="neutral-3_13_" class="st3" d="M138.6,204.5c0,2.1-1.7,3.8-3.8,3.8H52.4c-2.1,0-3.8-1.7-3.8-3.8v-52.6
                c0-2.1,1.7-3.8,3.8-3.8h82.2c2.1,0,3.8,1.7,3.8,3.8C138.6,151.7,138.6,204.5,138.6,204.5z"/>
        </g>
    </g>
    <g id="IoT">
        <g id="white_30_">
            <circle id="white_31_" class="st0" cx="205.8" cy="62" r="7.2"/>
        </g>
        <g id="neutral-3_101_">
            <path id="neutral-3_102_" class="st2" d="M205.8,69.2c-3.9,0-7.2-3.3-7.2-7.2s3.3-7.2,7.2-7.2c3.9,0,7.2,3.3,7.2,7.2"/>
        </g>
        <g id="neutral-3_99_">
            <path id="neutral-3_100_" class="st2" d="M204.5,64.7c0,0,3.7-6.3,7.8-6.9c2.2-0.3,1.7,1.5,0.6,3.5"/>
        </g>
        <g id="neutral-3_97_">
            <polyline id="neutral-3_98_" class="st2" points="204.1,62 204.2,64.7 206.9,64.6 		"/>
        </g>
        <g id="neutral-3_95_">
            <path id="neutral-3_96_" class="st14" d="M207,71.3v-4.4h0.8v4.4H207z"/>
        </g>
        <g id="neutral-3_93_">
            <path id="neutral-3_94_" class="st14" d="M211.2,70.8c-0.2,0.2-0.7,0.4-1.1,0.4s-0.9-0.2-1.1-0.4c-0.2-0.3-0.3-0.7-0.3-1.2
                s0.1-0.9,0.3-1.2c0.2-0.2,0.7-0.4,1.1-0.4s0.9,0.2,1.1,0.4c0.2,0.3,0.3,0.7,0.3,1.2C211.5,70.1,211.4,70.6,211.2,70.8z
                 M210.5,68.8c-0.1-0.1-0.2-0.2-0.4-0.2c-0.2,0-0.3,0.1-0.4,0.2c-0.2,0.2-0.2,0.6-0.2,0.8c0,0.3,0,0.6,0.2,0.8
                c0.1,0.1,0.2,0.2,0.4,0.2c0.2,0,0.3-0.1,0.4-0.2c0.2-0.2,0.2-0.6,0.2-0.8S210.7,69,210.5,68.8z"/>
        </g>
        <g id="neutral-3_91_">
            <path id="neutral-3_92_" class="st14" d="M213.9,67.5v3.7h-0.8v-3.7h-1.3v-0.8h3.4v0.8H213.9z"/>
        </g>
        <g id="neutral-3_89_">
            <path id="neutral-3_90_" class="st2" d="M216.4,64.5c-1.6-1.6-4.2-1.6-5.7,0"/>
        </g>
        <g id="neutral-3_87_">
            <path id="neutral-3_88_" class="st2" d="M215,65.7c-0.9-0.9-2.2-0.9-3.1,0"/>
        </g>
        <g id="neutral-3_85_">
            <path id="neutral-3_86_" class="st2" d="M205.1,57.8c0,0-6.2,4.9-6.2,9.6c0,2.6,1.7,2.2,3.6,0.8"/>
        </g>
        <g id="neutral-3_83_">
            <polyline id="neutral-3_84_" class="st2" points="202.2,57.5 205.1,57.5 205.3,60.5 		"/>
        </g>
    </g>
    <g id="Cloud">
        <g id="white_26_">
            <path id="white_29_" class="st0" d="M211.4,92.7h-10.1c-1.7,0-3-1.3-3-3c0-1.7,1.3-3,3-3c0.4,0,0.9,0.1,1.2,0.3
                c0.3-2,2.1-3.7,4.3-3.7c1.5,0,2.7,0.7,3.5,1.9c0.3-0.1,0.8-0.2,1.1-0.2c2.1,0,3.8,1.7,3.8,3.8C215.3,91.1,213.5,92.7,211.4,92.7z"
                />
        </g>
        <g id="neutral-3_81_">
            <path id="neutral-3_82_" class="st2" d="M211.4,92.7h-10.1c-1.7,0-3-1.3-3-3c0-1.7,1.3-3,3-3c0.4,0,0.9,0.1,1.2,0.3
                c0.3-2,2.1-3.7,4.3-3.7c1.5,0,2.7,0.7,3.5,1.9c0.3-0.1,0.8-0.2,1.1-0.2c2.1,0,3.8,1.7,3.8,3.8C215.3,91.1,213.5,92.7,211.4,92.7z"
                />
        </g>
        <g id="neutral-3_79_">
            <line id="neutral-3_80_" class="st2" x1="206.8" y1="88" x2="206.8" y2="91.1"/>
        </g>
        <g id="neutral-3_77_">
            <polyline id="neutral-3_78_" class="st2" points="208.7,89.1 206.8,87.5 204.9,89.1 		"/>
        </g>
    </g>
    <g id="Network">
        <g id="white_18_">
            <rect id="white_19_" x="204.8" y="112.9" class="st0" width="4.6" height="4.6"/>
        </g>
        <g id="white_16_">
            <rect id="white_17_" x="198.8" y="120.9" class="st0" width="4.6" height="4.6"/>
        </g>
        <g id="white_14_">
            <rect id="white_15_" x="210.7" y="120.9" class="st0" width="4.6" height="4.6"/>
        </g>
        <g id="neutral-3_44_">
            <rect id="neutral-3_45_" x="204.8" y="112.9" class="st2" width="4.6" height="4.6"/>
        </g>
        <g id="neutral-3_42_">
            <rect id="neutral-3_43_" x="198.8" y="120.9" class="st2" width="4.6" height="4.6"/>
        </g>
        <g id="neutral-3_40_">
            <rect id="neutral-3_41_" x="210.7" y="120.9" class="st2" width="4.6" height="4.6"/>
        </g>
        <g id="neutral-3_38_">
            <line id="neutral-3_39_" class="st2" x1="203.4" y1="123.1" x2="210.7" y2="123.1"/>
        </g>
        <g id="neutral-3_36_">
            <line id="neutral-3_37_" class="st2" x1="207.1" y1="117.5" x2="207.1" y2="123"/>
        </g>
        <g id="neutral-3_34_">
            <line id="neutral-3_35_" class="st2" x1="214.9" y1="115.1" x2="211.9" y2="115.1"/>
        </g>
        <g id="neutral-3_32_">
            <polyline id="neutral-3_33_" class="st2" points="213.8,117 215.5,115.1 213.8,113.2 		"/>
        </g>
        <g id="neutral-3_30_">
            <line id="neutral-3_31_" class="st2" x1="199.4" y1="115.1" x2="202.4" y2="115.1"/>
        </g>
        <g id="neutral-3_28_">
            <polyline id="neutral-3_29_" class="st2" points="200.5,113.2 198.8,115.1 200.5,117 		"/>
        </g>
    </g>
    <g id="Shield">
        <g id="white_1_">
            <path id="white_8_" class="st0" d="M207.1,156.6c-4.2,0-7.5-6.4-7.8-14.4c1,0.6,2.2,0.9,3.7,0.9c1.7,0,3.1-0.4,4.2-1.1
                c1,0.8,2.5,1.1,4.2,1.1c1.3,0,2.7-0.3,3.7-0.9C214.7,150.2,211.3,156.6,207.1,156.6z"/>
        </g>
        <g id="neutral-3_18_">
            <path id="neutral-3_19_" class="st3" d="M207.1,156.6c-4.2,0-7.5-6.4-7.8-14.4c1,0.6,2.2,0.9,3.7,0.9c1.7,0,3.1-0.4,4.2-1.1
                c1,0.8,2.5,1.1,4.2,1.1c1.3,0,2.7-0.3,3.7-0.9C214.7,150.2,211.3,156.6,207.1,156.6z"/>
        </g>
        <g id="neutral-3_16_">
            <rect id="neutral-3_17_" x="204.3" y="147.4" class="st3" width="5.4" height="4.7"/>
        </g>
        <g id="neutral-3_14_">
            <path id="neutral-3_15_" class="st3" d="M205.4,147.3c0-0.1-0.1-0.3-0.1-0.6c0-0.9,0.8-1.7,1.7-1.7c0.9,0,1.7,0.8,1.7,1.7
                c0,0.1,0,0.3,0,0.4"/>
        </g>
        <g id="neutral-3_4_">
            <path id="neutral-3_5_" class="st14" d="M206.7,150.1v0.4c0,0.2,0.1,0.3,0.3,0.3c0.2,0,0.3-0.1,0.3-0.3v-0.4
                c0.2-0.1,0.3-0.3,0.3-0.6c0-0.3-0.3-0.7-0.7-0.7c-0.3,0-0.7,0.3-0.7,0.7C206.3,149.7,206.5,149.9,206.7,150.1z"/>
        </g>
    </g>
</g>
</svg>
