<svg version="1.1" xmlns="http://www.w3.org/2000/svg" xmlns:xlink="http://www.w3.org/1999/xlink" x="0px" y="0px"
	 viewBox="0 0 336 252" style="enable-background:new 0 0 336 252;" xml:space="preserve">
<style type="text/css">
	.three-people-different-job-outfits .st0{fill:#FFFFFF;}
	.three-people-different-job-outfits .st1{fill:none;stroke:#0064D2;stroke-linecap:round;stroke-miterlimit:10;}
	.three-people-different-job-outfits .st2{fill:#DCDEEE;}
	.three-people-different-job-outfits .st3{fill:none;stroke:#0064D2;stroke-linecap:round;stroke-linejoin:round;stroke-miterlimit:10;}
	.three-people-different-job-outfits .st4{fill:#0064D2;stroke-width:0;}
	.three-people-different-job-outfits .st5{fill:#FFFFFF;stroke:#0064D2;stroke-linecap:round;stroke-linejoin:round;stroke-miterlimit:10;}
	.three-people-different-job-outfits .st6{fill:#B2E0FD;}
	.three-people-different-job-outfits .st7{fill:none;stroke:#5E50BF;stroke-linecap:round;stroke-linejoin:round;stroke-miterlimit:10;}
	.three-people-different-job-outfits .st8{fill:none;stroke:#5E50BF;stroke-linejoin:round;stroke-miterlimit:10;}
	.three-people-different-job-outfits .st9{fill:none;stroke:#5E50BF;stroke-linecap:round;stroke-miterlimit:10;}
	.three-people-different-job-outfits .st10{fill:#5E50BF;stroke-width:0;}
	.three-people-different-job-outfits .st11{fill:none;stroke:#0077C0;stroke-linecap:round;stroke-linejoin:round;stroke-miterlimit:10;}
	.three-people-different-job-outfits .st12{fill:#D1D5E6;}
</style>
<g class="three-people-different-job-outfits">
 <g id="Character_3">
        <g id="white">
            <path id="white_5_" class="st0" d="M307.8,251.7l1.3-25h0c0,1.4,1.8,3.8,1.8,3.8c0.3,0.4,0.4,0.8,0.3,1.3l-1,5.3
                c-0.2,0.9,0.4,1.8,1.4,2c0.7,0.1,1.5-0.2,1.8-0.9l-0.2,0.8l-3.8,6.5c-0.3,0.6-0.1,1.4,0.4,1.8c0.6,0.4,1.5,0.3,2-0.3l4.7-6
                c0,0,3.5-5.2,3.1-10.7c-0.3-4.2-0.6-7-0.9-8.9c-0.3-1.7-0.5-3.5-0.6-5.3v0h5.8l-0.2-73.3c0,0,0.2-16.8-10.3-25.1
                c-4.1-3.3-8.6-5.9-12.6-8.4c-6.4-4.1-10.5-8.4-10.5-18.8h-21c0,10.4-4,14.7-10.5,18.8c-4,2.5-8.5,5.1-12.6,8.4
                c-10.5,8.4-10.3,25.1-10.3,25.1l-0.2,73.3h5.8c-0.2,1.8-0.4,3.5-0.6,5.3c-0.3,1.9-0.6,4.7-0.9,8.9c-0.4,5.5,3.1,10.7,3.1,10.7
                l4.7,6c0.5,0.6,1.3,0.7,2,0.3c0.6-0.4,0.8-1.2,0.4-1.8l-3.8-6.5l-0.2-0.8c0.3,0.6,1.1,1,1.8,0.9c0.9-0.2,1.5-1.1,1.4-2l-1-5.3
                c-0.1-0.4,0-0.9,0.3-1.3c0,0,1.8-2.5,1.8-3.8h0l1.3,25.2L307.8,251.7z"/>
        </g>
        <g id="white_7_">

                <ellipse id="white_69_" transform="matrix(0.9239 -0.3827 0.3827 0.9239 -6.5841 103.4017)" class="st0" cx="256.6" cy="68.3" rx="6.3" ry="8.4"/>
        </g>
        <g id="white_8_">

                <ellipse id="white_3_" transform="matrix(0.3827 -0.9239 0.9239 0.3827 123.8216 321.8147)" class="st0" cx="302.7" cy="68.3" rx="8.4" ry="6.3"/>
        </g>
        <g id="stroke-1_41_">

                <ellipse id="stroke-1_139_" transform="matrix(0.9239 -0.3827 0.3827 0.9239 -6.5841 103.4017)" class="st1" cx="256.6" cy="68.3" rx="6.3" ry="8.4"/>
        </g>
        <g id="stroke-1_40_">

                <ellipse id="stroke-1" transform="matrix(0.3827 -0.9239 0.9239 0.3827 123.8216 321.8147)" class="st1" cx="302.7" cy="68.3" rx="8.4" ry="6.3"/>
        </g>
        <g id="shade-2_2_">
            <path id="shade-2_24_" class="st2" d="M308,218.1c0-0.5,0-1.1,0-1.5c0.4-14.3,0.8-28.7,1.2-43c0-0.7-0.4-1.2-0.9-1.5
                c0.1-1.5,0.1-3,0.2-4.5c0-0.3,0-0.6-0.1-0.8c1.4-7.4,1.7-14.9,1-22.5c-0.2-2.3-3.9-2.4-3.7,0c1,10.7-0.1,21.4-3.4,31.7
                c-2.8,8.7-7.1,16.1-12.3,23.3c-2.8,3.7-5.8,7.4-8.2,11.3c-1.9,3.2-3.1,7.1-1.4,10.6c1.7,3.4,5.3,4.5,8.8,4.9
                c6,0.7,12.1,0.5,18.1,0.4c1.1,0,1.7-0.8,1.8-1.8c0.2-1.6,0.3-3.2,0.5-4.8C310,218.6,309,218,308,218.1z"/>
        </g>
        <g id="shade-2_3_">
            <path id="shade-2_1_" class="st2" d="M271.3,251.8c-7-5.4-12.6-12.4-16.5-20.4c0,0,0-0.1,0-0.1c-0.1-0.3-0.2-0.6-0.4-0.8
                c-0.6-1.3-1-4.4-2.4-3.9c-0.8,0.3-2.7-2-1.9,0.3c0.6,1.6,0.3,3.8,1,5.4c0.3,6.5,0.6,13,0.9,19.5L271.3,251.8z"/>
        </g>
        <g id="stroke-1_39_">
            <path id="stroke-1_135_" class="st3" d="M250.3,226.7c0,1.4-1.8,3.8-1.8,3.8l0,0c-0.3,0.4-0.4,0.8-0.3,1.3l1,5.3
                c0.2,0.9-0.4,1.8-1.4,2h0c-0.9,0.2-1.8-0.4-2-1.3l-1.5-7.3l1.8,8.6l3.8,6.5c0.3,0.6,0.1,1.4-0.4,1.8l0,0c-0.6,0.4-1.5,0.3-2-0.3
                l-4.7-6c0,0-3.5-5.2-3.1-10.7c0.3-4.2,0.6-7,0.9-8.9c0.3-1.7,0.5-3.5,0.6-5.3"/>
        </g>
        <g id="stroke-1_38_">
            <path id="stroke-1_3_" class="st3" d="M309,226.7c0,1.4,1.8,3.8,1.8,3.8l0,0c0.3,0.4,0.4,0.8,0.3,1.3l-1,5.3
                c-0.2,0.9,0.4,1.8,1.4,2l0,0c0.9,0.2,1.8-0.4,2-1.3l1.5-7.3l-1.8,8.6l-3.8,6.5c-0.3,0.6-0.1,1.4,0.4,1.8l0,0
                c0.6,0.4,1.5,0.3,2-0.3l4.7-6c0,0,3.5-5.2,3.1-10.7c-0.3-4.2-0.6-7-0.9-8.9c-0.3-1.7-0.5-3.5-0.6-5.3"/>
        </g>
        <g id="stroke-1_37_">
            <path id="stroke-1_131_" class="st3" d="M290.2,90.5c0,10.4,4,14.7,10.5,18.8c4,2.5,8.5,5.1,12.6,8.4
                c10.5,8.4,10.3,25.1,10.3,25.1l0.2,73.3H309v10.5c0,0-8.4,0-18.9,0s-10.5-10.5-10.5-10.5s0,10.5-10.5,10.5c-10.5,0-18.9,0-18.9,0
                v-10.5h-14.7l0.2-73.3c0,0-0.2-16.8,10.3-25.1c4.1-3.3,8.6-5.9,12.6-8.4c6.4-4.1,10.5-8.4,10.5-18.8"/>
        </g>
        <g id="stroke-1_36_">
            <line id="stroke-1_5_" class="st3" x1="307.8" y1="251.8" x2="309" y2="226.7"/>
        </g>
        <g id="stroke-1_35_">
            <line id="stroke-1_128_" class="st3" x1="250.3" y1="226.7" x2="251.6" y2="251.8"/>
        </g>
        <g id="stroke-1_34_">
            <line id="stroke-1_7_" class="st3" x1="250.3" y1="216.2" x2="250.3" y2="142.8"/>
        </g>
        <g id="stroke-1_33_">
            <line id="stroke-1_123_" class="st3" x1="309" y1="142.8" x2="309" y2="216.2"/>
        </g>
        <g id="stroke-1_32_">
            <line id="stroke-1_9_" class="st3" x1="279.7" y1="216.2" x2="279.7" y2="128.2"/>
        </g>
        <g id="stroke-1_31_">
            <path id="stroke-1_120_" class="st3" d="M267.1,100.9l-10.5,23c0,0,8.4-2,12.6-2.1c4.4-0.1,9,1.9,10.5,6.3L267.1,100.9z"/>
        </g>
        <g id="stroke-1_30_">
            <path id="stroke-1_10_" class="st3" d="M292.2,100.9l10.5,23c0,0-8.4-2-12.6-2.1c-4.4-0.1-9,1.9-10.5,6.3L292.2,100.9z"/>
        </g>
        <g id="stroke-1-filled_26_">
            <circle id="stroke-1-filled_39_" class="st4" cx="284" cy="134.7" r="2.1"/>
        </g>
        <g id="stroke-1-filled_25_">
            <circle id="stroke-1-filled_10_" class="st4" cx="284" cy="147.3" r="2.1"/>
        </g>
        <g id="stroke-1-filled_24_">
            <circle id="stroke-1-filled_35_" class="st4" cx="284" cy="159.9" r="2.1"/>
        </g>
        <g id="stroke-1-filled_23_">
            <circle id="stroke-1-filled_1_" class="st4" cx="284" cy="172.5" r="2.1"/>
        </g>
        <g id="stroke-1-filled_22_">
            <circle id="stroke-1-filled_31_" class="st4" cx="284" cy="185" r="2.1"/>
        </g>
        <g id="stroke-1-filled_12_">
            <circle id="stroke-1-filled_5_" class="st4" cx="284" cy="197.6" r="2.1"/>
        </g>
        <g id="stroke-1-filled_11_">
            <circle id="stroke-1-filled_27_" class="st4" cx="284" cy="209.9" r="2.1"/>
        </g>
        <g id="stroke-1_29_">
            <line id="stroke-1_13_" class="st3" x1="309" y1="205.7" x2="323.7" y2="205.7"/>
        </g>
        <g id="stroke-1_28_">
            <line id="stroke-1_114_" class="st3" x1="235.7" y1="205.7" x2="250.3" y2="205.7"/>
        </g>
        <g id="white_9_">
            <ellipse id="white_2_" class="st0" cx="279.9" cy="64.1" rx="23" ry="31.4"/>
        </g>
        <g id="stroke-1_27_">
            <ellipse id="stroke-1_112_" class="st3" cx="279.9" cy="64.1" rx="23" ry="31.4"/>
        </g>
        <g id="stroke-1-filled_3_">
            <circle id="stroke-1-filled_7_" class="st4" cx="271.4" cy="66.1" r="2.1"/>
        </g>
        <g id="stroke-1-filled_2_">
            <circle id="stroke-1-filled_13_" class="st4" cx="288.2" cy="66.1" r="2.1"/>
        </g>
        <g id="stroke-1_26_">
            <path id="stroke-1_15_" class="st5" d="M280,66.2c0,4.7,3.1,4.9,3.1,7.7c0,2.6-3.1,2.8-3.1,2.8"/>
        </g>
        <g id="stroke-1_25_">
            <path id="stroke-1_108_" class="st3" d="M267.3,61.4c2.3-2.1,6.1-2.1,8.4,0"/>
        </g>
        <g id="stroke-1_24_">
            <path id="stroke-1_17_" class="st3" d="M284.1,61.4c2.3-2.1,6.1-2.1,8.4,0"/>
        </g>
        <g id="stroke-1_23_">
            <path id="stroke-1_105_" class="st3" d="M277.8,84.4c2.5,1.4,5.1,0.1,6.3-0.9"/>
        </g>
        <g id="white_10_">
            <path id="white_1_" class="st0" d="M300.9,51.5h2.1c1.2,0,2.1,0.9,2.1,2.1c0,1.2-0.9,2.1-2.1,2.1h-46.1c-1.2,0-2.1-0.9-2.1-2.1
                c0-1.2,0.9-2.1,2.1-2.1h2.1c0,0,0,0,0,0c0,0-2.1-23,20.9-23C302.9,28.4,300.8,51.5,300.9,51.5"/>
        </g>
        <g id="shade-1_1_">
            <path id="shade-1_18_" class="st6" d="M267.9,31.9c-0.3,0-0.5,0.1-0.8,0.3c-2.7,2-4.8,4.3-6.2,7.4c-0.7,1.5-1.1,3-1.4,4.5
                c-0.2,1-0.2,8.4-2,7.5c-2.1-1-4,2.2-1.9,3.2c1.6,0.7,3,0.7,4.2,0.1c0.2,0.1,0.4,0.1,0.7,0.1c3.1-0.1,8.8,1,9.5-3.2
                c0.4-2.5,0-5.4-0.1-8c0-2.7-0.1-5.3-0.1-8c0.3-0.6,0.7-1.2,1-1.9C272.1,32,269.2,30.2,267.9,31.9z"/>
        </g>
        <g id="stroke-1_22_">
            <path id="stroke-1_19_" class="st3" d="M300.9,51.5h2.1c1.2,0,2.1,0.9,2.1,2.1c0,1.2-0.9,2.1-2.1,2.1h-46.1
                c-1.2,0-2.1-0.9-2.1-2.1c0-1.2,0.9-2.1,2.1-2.1h2.1c0,0,0,0,0,0c0,0-2.1-23,20.9-23C302.9,28.4,300.8,51.5,300.9,51.5"/>
        </g>
        <g id="white_11_">
            <path id="white_60_" class="st0" d="M269.4,51.5V36.8c0,0,0-10.5,10.5-10.5c10.5,0,10.5,10.5,10.5,10.5v14.7"/>
        </g>
        <g id="stroke-1_21_">
            <path id="stroke-1_20_" class="st1" d="M269.4,51.5V36.8c0,0,0-10.5,10.5-10.5c10.5,0,10.5,10.5,10.5,10.5v14.7"/>
        </g>
    </g>
    <g id="Character_2">
        <g id="white_23_">
            <path id="white_55_" class="st0" d="M208.7,244.2h-2.4c-2.7,0-4.8-2.2-4.8-4.8v-30.5c0-2.7,2.2-4.8,4.8-4.8h2.4
                c2.7,0,4.8,2.2,4.8,4.8v30.5C213.5,242,211.3,244.2,208.7,244.2z"/>
        </g>
        <g id="white_24_">
            <path id="white_17_" class="st0" d="M215.9,234.1h-0.8c-0.9,0-1.6-0.7-1.6-1.6v-16.9c0-0.9,0.7-1.6,1.6-1.6h0.8
                c0.9,0,1.6,0.7,1.6,1.6v16.9C217.5,233.4,216.8,234.1,215.9,234.1z"/>
        </g>
        <g id="stroke-2_53_">
            <path id="stroke-2_81_" class="st7" d="M208.7,244.2h-2.4c-2.7,0-4.8-2.2-4.8-4.8v-30.5c0-2.7,2.2-4.8,4.8-4.8h2.4
                c2.7,0,4.8,2.2,4.8,4.8v30.5C213.5,242,211.3,244.2,208.7,244.2z"/>
        </g>
        <g id="stroke-2_52_">
            <path id="stroke-2_16_" class="st7" d="M215.9,234.1h-0.8c-0.9,0-1.6-0.7-1.6-1.6v-16.9c0-0.9,0.7-1.6,1.6-1.6h0.8
                c0.9,0,1.6,0.7,1.6,1.6v16.9C217.5,233.4,216.8,234.1,215.9,234.1z"/>
        </g>
        <g id="white_25_">
            <path id="white_49_" class="st0" d="M197.4,223.8c0,1.3,1.7,3.7,1.7,3.7l0,0c0.2,0.4,0.3,0.8,0.3,1.2l-0.9,5.1
                c-0.2,0.9,0.4,1.7,1.3,1.9l0,0c0.9,0.2,1.7-0.4,1.9-1.3l1.4-7l-1.7,8.2l-3.7,6.2c-0.3,0.6-0.1,1.4,0.4,1.8l0,0
                c0.6,0.4,1.4,0.3,1.9-0.3l4.5-5.8c0,0,3.3-4.9,2.9-10.2c-0.3-4-0.6-6.8-0.9-8.6c-0.6-4.3-1-8.7-1-13.1l-0.9-18.1h2.8v-42.6
                c0,0,2.3-16.7-12.1-27.3c0,0-12.5-7.7-13.6-9.6c-1.1-1.9-2.5-5.7-2.5-14.9h-20.5c0,0,4.4,16.5-12,22c0,0-15.5,5.2-15.6,31.4
                s0,41,0,41h2.6c0,0-0.6,21.5-1.2,26.3c-0.6,4.8-4,18.1,1.8,24c0,0,4.6,7.2,6.1,5.7s-3.3-8.3-3.3-8.3s2.6,2,3-1.3
                c0.3-2.9-1-5.9-1-5.9s1.9-4.4,2.2,0.5c0.2,5,1.2,23.1,1.2,23.1H196L197.4,223.8z"/>
        </g>
        <g id="stroke-2_51_">
            <path id="stroke-2_15_" class="st8" d="M179.3,93.3c0,10-0.2,14.1,6,18c3.8,2.4,8.1,4.9,12.1,8c10,8,9.9,24.1,9.9,24.1l0.2,44.2
                h-12.1"/>
        </g>
        <g id="shade-1_2_">
            <path id="shade-1_15_" class="st6" d="M194.2,167.2c0-0.7,0.7-2,0.2-2.2c0.7-7.2-0.6-13.8-1-21.1c-0.1-2.3-3.6-2.3-3.5,0
                c0.4,10.4,0.9,20.9-1.7,31c-1.2,4.6-3,9-5.6,13c-2.6,4-5.8,7.7-8.4,11.7c-3.5,5.5-7.3,14.6-2.7,20.6c2.1,2.7,5.3,3.3,8.5,3.8
                c5.1,0.7,10.2,0.7,15.3,0c0.9-0.1,1.8-0.7,1.8-1.8C196.2,203.9,195.2,185.5,194.2,167.2z M185.4,216.6c0.1,0,0.1,0,0.2,0
                C185.6,216.6,185.5,216.6,185.4,216.6C185.4,216.6,185.4,216.6,185.4,216.6z"/>
        </g>
        <g id="shade-1_3_">
            <path id="shade-1_5_" class="st6" d="M166.9,251.8c-9.4-5.5-16.8-13.7-21.5-23.4c0,0,0,0,0-0.1c-0.1-0.3-0.2-0.5-0.4-0.7
                c-0.6-1.3-0.2-4-1.6-3.9c-1.3,0.1-3.2-1.3-2.4,0.8c0.6,1.6,0.2,3.2,0.9,4.7c0.4,7.5,0.7,15,1.1,22.5L166.9,251.8z"/>
        </g>
        <g id="stroke-2_50_">
            <path id="stroke-2_76_" class="st8" d="M143.1,187.7h-12.1l0.2-44.2c0,0-0.2-16.1,9.9-24.1c3.9-3.2,8.2-5.6,12.1-8
                c6.2-3.9,6-8,6-18"/>
        </g>
        <g id="stroke-2_49_">
            <path id="stroke-2_13_" class="st7" d="M141.1,223.8c0,1.3-1.7,3.7-1.7,3.7l0,0c-0.2,0.4-0.3,0.8-0.3,1.2l0.9,5.1
                c0.2,0.9-0.4,1.7-1.3,1.9l0,0c-0.9,0.2-1.7-0.4-1.9-1.3l-1.4-7l1.7,8.2l3.7,6.2c0.3,0.6,0.1,1.4-0.4,1.8l0,0
                c-0.6,0.4-1.4,0.3-1.9-0.3l-4.5-5.8c0,0-3.3-4.9-2.9-10.2c0.3-4,0.6-6.8,0.9-8.6c0.6-4.3,1-8.7,1-13.1l0.9-18.1"/>
        </g>
        <g id="stroke-2_48_">
            <polyline id="stroke-2_72_" class="st7" points="196,251.8 197.4,223.8 141.1,223.8 142.5,251.8 		"/>
        </g>
        <g id="stroke-2_47_">
            <path id="stroke-2_11_" class="st7" d="M197.4,223.8c0,1.3,1.7,3.7,1.7,3.7l0,0c0.2,0.4,0.3,0.8,0.3,1.2l-0.9,5.1
                c-0.2,0.9,0.4,1.7,1.3,1.9l0,0c0.9,0.2,1.7-0.4,1.9-1.3l1.4-7l-1.7,8.2l-3.7,6.2c-0.3,0.6-0.1,1.4,0.4,1.8l0,0
                c0.6,0.4,1.4,0.3,1.9-0.3l4.5-5.8c0,0,3.3-4.9,2.9-10.2c-0.3-4-0.6-6.8-0.9-8.6c-0.6-4.3-1-8.7-1-13.1l-0.9-18.1"/>
        </g>
        <g id="stroke-2_46_">
            <line id="stroke-2_69_" class="st7" x1="145.2" y1="143.4" x2="141.1" y2="223.8"/>
        </g>
        <g id="stroke-2_45_">
            <line id="stroke-2_9_" class="st7" x1="193.4" y1="143.4" x2="197.4" y2="223.8"/>
        </g>
        <g id="stroke-2_44_">
            <path id="stroke-2_65_" class="st8" d="M183.3,110.1c-4.7,4-8.2,6-14.1,6c-5.9,0-9.4-2-14.1-6l14.1,53.5L183.3,110.1z"/>
        </g>
        <g id="stroke-2_43_">
            <line id="stroke-2_7_" class="st8" x1="195.4" y1="177.6" x2="207.5" y2="177.6"/>
        </g>
        <g id="white_26_">
            <polyline id="white_48_" class="st0" points="191.9,116.3 209.5,204 205.5,204 187.9,113.6 		"/>
        </g>
        <g id="stroke-2_42_">
            <line id="stroke-2_6_" class="st8" x1="131.1" y1="177.6" x2="143.1" y2="177.6"/>
        </g>
        <g id="stroke-2_41_">
            <polyline id="stroke-2_61_" class="st7" points="191.7,115.3 209.5,204 205.5,204 187.6,112.7 		"/>
        </g>
        <g id="stroke-2_40_">
            <path id="stroke-2_26_" class="st7" d="M162.9,139.6v7c0,3.1-2.5,5.6-5.6,5.6h0c-3.1,0-5.6-2.5-5.6-5.6v-7H162.9z"/>
        </g>
        <g id="stroke-2_39_">
            <rect id="stroke-2_59_" x="162.7" y="163.6" class="st8" width="13.1" height="19.2"/>
        </g>
        <g id="shade-2_10_">
            <circle id="shade-2_5_" class="st2" cx="169.4" cy="169.8" r="1.4"/>
        </g>
        <g id="shade-2_11_">
            <path id="shade-2_16_" class="st2" d="M171.8,173.3c0-1.3-1-2.3-2.3-2.3s-2.3,1-2.3,2.3H171.8z"/>
        </g>
        <g id="stroke-2_38_">
            <rect id="stroke-2_24_" x="166.3" y="166.5" class="st8" width="6.4" height="7.3"/>
        </g>
        <g id="stroke-2_37_">
            <line id="stroke-2_56_" class="st7" x1="165.7" y1="176.9" x2="173.4" y2="176.9"/>
        </g>
        <g id="stroke-2_36_">
            <line id="stroke-2_22_" class="st7" x1="166.2" y1="179.2" x2="172.6" y2="179.2"/>
        </g>
        <g id="white_27_">
            <path id="white_38_" class="st0" d="M184.8,38.5c0,8.4-6.8,15.3-15.3,15.3c-8.4,0-15.3-6.8-15.3-15.3c0-8.4,6.8-15.3,15.3-15.3
                C177.9,23.2,184.8,30,184.8,38.5"/>
        </g>
        <g id="white_29_">
            <path id="white_21_" class="st0" d="M184.8,38.5c0,8.4-6.8,15.3-15.3,15.3c-8.4,0-15.3-6.8-15.3-15.3c0-8.4,6.8-15.3,15.3-15.3
                C177.9,23.2,184.8,30,184.8,38.5z"/>
        </g>
        <g id="shade-2_13_">
            <path id="shade-2_9_" class="st2" d="M157.3,41.9c5.6-4.1,12.6-3.9,18.7-2.5c0.2,0,0.3,0,0.5,0c1.7,1.1,3.8,1.4,3.6-0.7
                c-1-6.9-7-12.8-14-13.1c-3-0.1-6,0.8-8.1,3c-2,2.1-3,5-3.5,7.8c-0.2,1.2-0.3,2.4-0.4,3.5C154,41.5,154.1,44.2,157.3,41.9"/>
        </g>
        <g id="stroke-2_35_">
            <path id="stroke-2_21_" class="st9" d="M184.8,38.5c0,8.4-6.8,15.3-15.3,15.3c-8.4,0-15.3-6.8-15.3-15.3c0-8.4,6.8-15.3,15.3-15.3
                C177.9,23.2,184.8,30,184.8,38.5z"/>
        </g>
        <g id="white_30_">
            <path id="white_36_" class="st0" d="M154.2,72.5c-1.6-3.9-5.3-6.1-8.2-4.9c-2.9,1.2-4,5.4-2.4,9.2c1.6,3.9,5.3,6.1,8.2,4.9
                C154.8,80.6,155.9,76.4,154.2,72.5"/>
        </g>
        <g id="stroke-2_34_">
            <path id="stroke-2_20_" class="st9" d="M154.2,72.5c-1.6-3.9-5.3-6.1-8.2-4.9c-2.9,1.2-4,5.4-2.4,9.2c1.6,3.9,5.3,6.1,8.2,4.9
                C154.8,80.6,155.9,76.4,154.2,72.5z"/>
        </g>
        <g id="white_31_">
            <path id="white_28_" class="st0" d="M194.9,76.9c1.6-3.9,0.6-8-2.4-9.2c-2.9-1.2-6.6,1-8.2,4.9c-1.6,3.9-0.6,8,2.4,9.2
                C189.6,83,193.3,80.8,194.9,76.9"/>
        </g>
        <g id="stroke-2_33_">
            <path id="stroke-2_19_" class="st9" d="M194.9,76.9c1.6-3.9,0.6-8-2.4-9.2c-2.9-1.2-6.6,1-8.2,4.9c-1.6,3.9-0.6,8,2.4,9.2
                C189.6,83,193.3,80.8,194.9,76.9z"/>
        </g>
        <g id="white_32_">
            <path id="white_22_" class="st0" d="M190.3,70.9c0,15.8-9.4,28.6-21,28.6c-11.6,0-21-12.8-21-28.6s9.4-28.6,21-28.6
                C180.9,42.3,190.3,55.1,190.3,70.9"/>
        </g>
        <g id="stroke-2_32_">
            <path id="stroke-2_18_" class="st7" d="M190.3,70.9c0,15.8-9.4,28.6-21,28.6c-11.6,0-21-12.8-21-28.6s9.4-28.6,21-28.6
                C180.9,42.3,190.3,55.1,190.3,70.9z"/>
        </g>
        <g id="stroke-2-filled_3_">
            <path id="stroke-2-filled_4_" class="st10" d="M163.4,72.8c0,1.1-0.9,1.9-1.9,1.9c-1.1,0-1.9-0.9-1.9-1.9c0-1.1,0.9-1.9,1.9-1.9
                C162.6,70.8,163.4,71.7,163.4,72.8"/>
        </g>
        <g id="stroke-2-filled_2_">
            <path id="stroke-2-filled" class="st10" d="M178.8,72.8c0,1.1-0.9,1.9-1.9,1.9c-1.1,0-1.9-0.9-1.9-1.9c0-1.1,0.9-1.9,1.9-1.9
                C177.9,70.8,178.8,71.7,178.8,72.8"/>
        </g>
        <g id="white_33_">
            <path id="white_20_" class="st0" d="M169.3,72.8c0,4.3,2.8,4.5,2.8,7c0,2.4-2.9,2.6-2.9,2.6"/>
        </g>
        <g id="stroke-2_31_">
            <path id="stroke-2_8_" class="st7" d="M169.3,72.8c0,4.3,2.8,4.5,2.8,7c0,2.4-2.9,2.6-2.9,2.6"/>
        </g>
        <g id="stroke-2_30_">
            <path id="stroke-2_10_" class="st7" d="M157.8,68.5c2.1-1.9,5.5-1.9,7.6,0"/>
        </g>
        <g id="stroke-2_29_">
            <path id="stroke-2_4_" class="st7" d="M173.1,68.5c2.1-1.9,5.5-1.9,7.6,0"/>
        </g>
        <g id="stroke-2_28_">
            <path id="stroke-2_3_" class="st7" d="M167.4,89.4c2.3,1.3,4.7,0.1,5.7-0.9"/>
        </g>
        <g id="white_34_">
            <path id="white_12_" class="st0" d="M194.3,63.3h-49.6c0-13.7,11.1-24.8,24.8-24.8C183.2,38.5,194.3,49.6,194.3,63.3"/>
        </g>
        <g id="shade-2_12_">
            <path id="shade-2_7_" class="st2" d="M165.4,40.1c-11.5,0.3-19,10.4-21,20.8c-0.4,1.9,0.9,2.5,3,2.4c0.2,0.1,33.6,0.3,35.8,0
                c0.7-0.1,1.3-1,1.2-1.6C184.1,51.2,177,39.8,165.4,40.1"/>
        </g>
        <g id="stroke-2_27_">
            <path id="stroke-2_2_" class="st7" d="M194.3,63.3h-49.6c0-13.7,11.1-24.8,24.8-24.8C183.2,38.5,194.3,49.6,194.3,63.3z"/>
        </g>
    </g>
    <g id="Character_1">
        <g id="white_41_">
            <path id="white_18_" class="st0" d="M69.2,86.3c0,0-3,16.7,10.2,21.3s17.9,19.3,18.6,24.4s0.9,81,0.9,81h-3.7c0,0,4.6,19.8-1.5,25
                l-7.4,8.9H28.4l0.7-22.5l-2,4.2l1,6l-1.4,1.3c0,0-1.7-0.2-0.6,1.7c1.1,1.8,3.9,8.5,0.6,6.9s-8.4-10.3-8.1-15
                c0.2-4.7,1.6-16.7,1.6-16.7l-1.6,0l0-72.6c0,0-1.3-20.4,16.7-31.1c0,0,16.4-3.9,12.7-23L69.2,86.3z"/>
        </g>
        <g id="shade-1_10_">
            <path id="shade-1_7_" class="st6" d="M46.4,88.9c-1.9-1.5-3.4-3.3-4.5-5.5c-0.3-0.6-2.3-3.1-2.4-3.9c-0.4-2.4-2.7-5-2.3-2.7
                c0.5,3.3-1,10.6-3,13.3c-0.7,0.9-1.9,2.6-0.8,2.7c3.6,0.5,7.2,1.6,14.2-1C49.3,91.3,47.6,89.8,46.4,88.9"/>
        </g>
        <g id="shade-1_11_">
            <path id="shade-1_6_" class="st6" d="M77,81.8c1.1-3-6.6,6.4-7.5,8c-0.7,1.3,1.2,1.7,2.4,2.4c1.5,0.9,7.5,1.8,9.1,1.4
                C80.9,93.6,74.7,87.9,77,81.8"/>
        </g>
        <g id="stroke-1_93_">
            <path id="stroke-1_66_" class="st3" d="M81.4,71.2c0,0-2.6,17.5,5.1,21.2c0,0-10.7,3.3-17-1.7"/>
        </g>
        <g id="stroke-1_92_">
            <path id="stroke-1_99_" class="st3" d="M36.2,73.3c0.4,4.7,1.5,16.2-4.6,19.1c0,0,9.9,2.6,16.3-1.6"/>
        </g>
        <g id="stroke-1_91_">
            <path id="stroke-1_64_" class="st3" d="M29.1,223.6c0,1.4-1.8,3.9-1.8,3.9c-0.3,0.4-0.4,0.8-0.3,1.3l1,5.4c0.2,0.9-0.4,1.8-1.4,2
                c-0.9,0.2-1.8-0.4-2-1.4l-1.5-7.4L25,236l3.8,6.6c0.3,0.6,0.1,1.4-0.4,1.9c-0.6,0.5-1.5,0.3-2-0.3l-4.8-6.1c0,0-3.5-5.2-3.1-10.7
                c0.3-4.3,0.6-7.1,0.9-9c0.3-1.8,0.5-3.5,0.6-5.3"/>
        </g>
        <g id="stroke-1_90_">
            <path id="stroke-1_94_" class="st3" d="M86.1,223.6c0,1.4,1.8,3.9,1.8,3.9c0.3,0.4,0.4,0.8,0.3,1.3l-1,5.4c-0.2,0.9,0.4,1.8,1.4,2
                c0.9,0.2,1.8-0.4,2-1.4l1.5-7.4l-1.8,8.6l-3.8,6.6c-0.3,0.6-0.1,1.4,0.4,1.9c0.6,0.5,1.5,0.3,2-0.3l4.8-6.1c0,0,3.5-5.2,3.1-10.7
                c-0.3-4.3-0.6-7.1-0.9-9c-0.3-1.8-0.5-3.5-0.6-5.3"/>
        </g>
        <g id="white_42_">
            <polyline id="white_35_" class="st0" points="33.3,139.1 27.7,251.8 89.6,251.8 84,139.1 		"/>
        </g>
        <g id="stroke-1_89_">
            <line id="stroke-1_65_" class="st11" x1="27.7" y1="251.8" x2="33.3" y2="139.1"/>
        </g>
        <g id="stroke-1_88_">
            <line id="stroke-1_61_" class="st11" x1="84" y1="139.1" x2="89.7" y2="251.8"/>
        </g>
        <g id="stroke-1_87_">
            <path id="stroke-1_62_" class="st3" d="M29.1,213H18.5l0.2-74c0,0-0.2-16.9,10.4-25.4c4.1-3.3,8.6-5.9,12.7-8.5
                c6.5-4.1,6.3-8.5,6.3-18.9"/>
        </g>
        <g id="stroke-1_86_">
            <path id="stroke-1_59_" class="st3" d="M69.2,86.3c0,10.5-0.2,14.8,6.3,18.9c4,2.5,8.5,5.1,12.7,8.5c10.6,8.5,10.4,25.4,10.4,25.4
                l0.2,74H88.2"/>
        </g>
        <g id="stroke-1_85_">
            <path id="stroke-1_58_" class="st3" d="M73.1,103.4c-4.7,4-8.4,6.1-14.5,6.1c-6.1,0-9.7-2-14.5-6.1"/>
        </g>
        <g id="stroke-1_84_">
            <line id="stroke-1_57_" class="st3" x1="86.1" y1="202.5" x2="98.8" y2="202.5"/>
        </g>
        <g id="shade-2_14_">
            <path id="shade-2_6_" class="st12" d="M84.9,164c0-0.8-0.4-16.9-0.8-24.5c-0.1-2.4-3.8-2.4-3.7,0c0.5,10.9,1,22-1.8,32.6
                c-1.3,4.9-3.2,9.4-5.9,13.6c-2.8,4.2-6.1,8-8.8,12.3c-3.7,5.8-7.7,15.4-2.8,21.7c2.2,2.8,5.6,3.5,8.9,4c5.4,0.8,10.8,0.7,16.1,0
                c1-0.1,1.9-0.8,1.9-1.9C87,202.6,85.9,183.3,84.9,164"/>
        </g>
        <g id="shade-2_15_">
            <path id="shade-2_8_" class="st12" d="M31.2,224.6c-0.3-1.8-2.6-1.7-2.3,0.6c0.4,2.9,0,10.7,0,11.5c0,0.4-0.2,6.5-0.7,15l17.3,0.3
                C38.9,243.8,32.9,235.3,31.2,224.6"/>
        </g>
        <g id="stroke-1_83_">
            <line id="stroke-1_54_" class="st3" x1="18.5" y1="202.5" x2="29.1" y2="202.5"/>
        </g>
        <g id="stroke-1_82_">
            <line id="stroke-1_55_" class="st3" x1="88.2" y1="223.6" x2="29.1" y2="223.6"/>
        </g>
        <g id="stroke-1_81_">
            <line id="stroke-1_47_" class="st3" x1="27.7" y1="252" x2="33.3" y2="139.1"/>
        </g>
        <g id="stroke-1_80_">
            <line id="stroke-1_53_" class="st3" x1="84" y1="139.1" x2="89.7" y2="251.8"/>
        </g>
        <g id="white_47_">
            <path id="white_15_" class="st0" d="M41,62.7c-1.8-4.3-5.9-6.7-9.1-5.4c-3.2,1.3-4.4,5.9-2.6,10.2c1.8,4.3,5.9,6.7,9.1,5.4
                C41.7,71.6,42.8,67,41,62.7"/>
        </g>
        <g id="stroke-1_79_">
            <path id="stroke-1_52_" class="st3" d="M41,62.7c-1.8-4.3-5.9-6.7-9.1-5.4c-3.2,1.3-4.4,5.9-2.6,10.2c1.8,4.3,5.9,6.7,9.1,5.4
                C41.7,71.6,42.8,67,41,62.7z"/>
        </g>
        <g id="white_46_">
            <path id="white_14_" class="st0" d="M87.5,67.5c1.8-4.3,0.6-8.9-2.6-10.2c-3.2-1.3-7.3,1.1-9.1,5.4c-1.8,4.3-0.6,8.9,2.6,10.2
                C81.7,74.3,85.7,71.9,87.5,67.5"/>
        </g>
        <g id="stroke-1_78_">
            <path id="stroke-1_51_" class="st3" d="M87.5,67.5c1.8-4.3,0.6-8.9-2.6-10.2c-3.2-1.3-7.3,1.1-9.1,5.4c-1.8,4.3-0.6,8.9,2.6,10.2
                C81.7,74.3,85.7,71.9,87.5,67.5z"/>
        </g>
        <g id="white_45_">
            <path id="white_13_" class="st0" d="M81.9,60.9c0,12.8-5.6,23.8-13.6,28.8c-2.9,1.8-6.2,2.9-9.7,2.9c-12.8,0-23.2-14.2-23.2-31.7
                c0-17.5,10.4-31.7,23.2-31.7C71.5,29.2,81.9,43.4,81.9,60.9"/>
        </g>
        <g id="stroke-1_77_">
            <path id="stroke-1_50_" class="st3" d="M81.9,60.9c0,12.8-5.6,23.8-13.6,28.8c-2.9,1.8-6.2,2.9-9.7,2.9
                c-12.8,0-23.2-14.2-23.2-31.7c0-17.5,10.4-31.7,23.2-31.7C71.5,29.2,81.9,43.4,81.9,60.9z"/>
        </g>
        <g id="stroke-1-filled_17_">
            <path id="stroke-1-filled_9_" class="st4" d="M52.2,63c0,1.2-1,2.2-2.2,2.2c-1.2,0-2.2-1-2.2-2.2c0-1.2,1-2.2,2.2-2.2
                C51.2,60.8,52.2,61.8,52.2,63"/>
        </g>
        <g id="stroke-1-filled_18_">
            <path id="stroke-1-filled_15_" class="st4" d="M69.2,63c0,1.2-1,2.2-2.2,2.2c-1.2,0-2.2-1-2.2-2.2c0-1.2,1-2.2,2.2-2.2
                C68.2,60.8,69.2,61.8,69.2,63"/>
        </g>
        <g id="stroke-1_76_">
            <path id="stroke-1_16_" class="st3" d="M46,58.2c2.3-2.1,6.1-2.1,8.5,0"/>
        </g>
        <g id="stroke-1_75_">
            <path id="stroke-1_48_" class="st3" d="M62.9,58.2c2.3-2.1,6.1-2.1,8.5,0"/>
        </g>
        <g id="stroke-1_74_">
            <path id="stroke-1_12_" class="st3" d="M67.2,79.1c0,0-2.2,4.2-8.5,4.2"/>
        </g>
        <g id="stroke-1_73_">
            <path id="stroke-1_67_" class="st3" d="M79.6,126.9c0,1.8-1.4,3.2-3.2,3.2c-1.8,0-3.2-1.4-3.2-3.2c0-1.8,1.4-3.2,3.2-3.2
                C78.2,123.7,79.6,125.2,79.6,126.9z"/>
        </g>
        <g id="stroke-1_72_">
            <path id="stroke-1_8_" class="st3" d="M73.1,103.4c5.4,5.4,7.5,13.8,5.4,21.1"/>
        </g>
        <g id="stroke-1-filled_19_">
            <path id="stroke-1-filled_14_" class="st4" d="M52.4,145.5c0.4,1.1-0.1,2.3-1.1,2.8c-1.1,0.4-2.3-0.1-2.7-1.2
                c-0.4-1.1,0.1-2.3,1.1-2.8C50.7,143.9,52,144.4,52.4,145.5"/>
        </g>
        <g id="stroke-1-filled_20_">
            <path id="stroke-1-filled_4_" class="st4" d="M56.3,143.9c0.4,1.1,1.7,1.6,2.7,1.2c1.1-0.4,1.6-1.7,1.1-2.8
                c-0.4-1.1-1.7-1.6-2.7-1.2C56.3,141.6,55.8,142.8,56.3,143.9"/>
        </g>
        <g id="stroke-1_71_">
            <path id="stroke-1_45_" class="st3" d="M48.6,147.1c0,0-3.9,1.6-5.5-2.3c-1.6-3.9-8.4-14.8,3.2-19.6c11.6-4.8,16.1,11.6,16.1,11.6
                s1.6,3.9-2.2,5.5"/>
        </g>
        <g id="stroke-1_70_">
            <path id="stroke-1_4_" class="st3" d="M44.7,103.8c-4.6,6.4-4.7,15.6-0.3,22.2"/>
        </g>
        <g id="white_44_">
            <path id="white_39_" class="st0" d="M58.6,64.1c0,4.8,3.1,5,3.1,7.7c0,2.6-3.2,2.8-3.2,2.8"/>
        </g>
        <g id="stroke-1_69_">
            <path id="stroke-1_2_" class="st3" d="M58.6,64.1c0,4.8,3.1,5,3.1,7.7c0,2.6-3.2,2.8-3.2,2.8"/>
        </g>
        <g id="white_43_">
            <path id="white_40_" class="st0" d="M58.9,26.3c-25.8,0-27.1,27.5-27.1,27.5c13.7,0,31.7-6.2,31.7-16.9c0,0-0.3,16.9,21.1,16.9
                C84.7,53.8,83.9,26.3,58.9,26.3"/>
        </g>
        <g id="shade-1_9_">
            <path id="shade-1_4_" class="st6" d="M53.4,27.5c-5.7,0.2-9.7,3-13.6,7.3c-4.4,4.8-6.2,11.2-7.5,17.5c-0.5,2.3,1.4,1.5,3.6,1.1
                c0.1,0,0.1,0,0.2,0c6.6-0.7,13.5-1.4,19.2-4.9c2.2-1.4,4.2-3.1,5.8-5.1c0.8-1.1,1.5-2.2,2-3.4c0.2-0.1,0.3-0.2,0.5-0.2
                c0.3,1.2,0.8,2.5,1,3c0.6,1.8,2,4,3.5,5.2c2.5,2.2,3.3,3.7,7.2,4.5c1.1,0.2,2.8,1.7,2.7,0.4C77,40.2,66.7,27.1,53.4,27.5"/>
        </g>
        <g id="stroke-1_68_">
            <path id="stroke-1_42_" class="st3" d="M58.9,26.3c-25.8,0-27.1,27.5-27.1,27.5c13.7,0,31.7-6.2,31.7-16.9c0,0-0.3,16.9,21.1,16.9
                C84.7,53.8,83.9,26.3,58.9,26.3z"/>
        </g>
    </g>    
</g>
</svg>
