<?xml version="1.0" encoding="UTF-8"?>
<svg width="264px" height="197px" viewBox="0 0 264 197" version="1.1" xmlns="http://www.w3.org/2000/svg" xmlns:xlink="http://www.w3.org/1999/xlink">
    <!-- Generator: Sketch 58 (84663) - https://sketch.com -->
    <title>Group</title>
    <desc>Created with Sketch.</desc>
    <defs>
        <rect id="path-1" x="0" y="0" width="264" height="197"></rect>
        <polygon id="path-3" points="0 182.998891 264 182.998891 264 0.382349316 0 0.382349316"></polygon>
    </defs>
    <g id="Articles" stroke="none" stroke-width="1" fill="none" fill-rule="evenodd">
        <g id="PRM---Articles-" transform="translate(-997.000000, -1365.000000)">
            <g id="Group-23" transform="translate(396.000000, 1216.000000)">
                <g id="Group-26" transform="translate(243.000000, 149.000000)">
                    <g id="Group-2-Copy-6" transform="translate(337.000000, 0.000000)">
                        <g id="Group" transform="translate(21.000000, 0.000000)">
                            <mask id="mask-2" fill="white">
                                <use xlink:href="#path-1"></use>
                            </mask>
                            <use id="Rectangle" fill="#FFFFFF" fill-rule="nonzero" xlink:href="#path-1"></use>
                            <g id="Group-54" mask="url(#mask-2)">
                                <g transform="translate(1.000000, 6.614754)">
                                    <path d="M142.42173,68.367308 L142.42173,68.367308 C139.112556,65.0590324 139.112556,59.644403 142.42173,56.3353298 L152.223627,46.5333271 C155.5328,43.224254 160.946583,43.224254 164.254962,46.5333271 C167.564136,49.8416027 167.564136,55.2562322 164.254962,58.5645078 L154.453065,68.367308 C151.144686,71.6755836 145.730109,71.6755836 142.42173,68.367308" id="Fill-1" stroke="none" fill="#FFFFFF" fill-rule="evenodd"></path>
                                    <path d="M142.42173,68.367308 L142.42173,68.367308 C139.112556,65.0590324 139.112556,59.644403 142.42173,56.3353298 L152.223627,46.5333271 C155.5328,43.224254 160.946583,43.224254 164.254962,46.5333271 C167.564136,49.8416027 167.564136,55.2562322 164.254962,58.5645078 L154.453065,68.367308 C151.144686,71.6755836 145.730109,71.6755836 142.42173,68.367308 Z" id="Stroke-3" stroke="#0077C0" stroke-width="2.025" fill="none" stroke-linecap="round" stroke-linejoin="round"></path>
                                    <path d="M142.42173,87.2244509 L142.42173,87.2244509 C139.112556,83.9161753 139.112556,78.5015458 142.42173,75.1924727 L152.223627,65.39047 C155.5328,62.0813968 160.946583,62.0813968 164.254962,65.39047 C167.564136,68.6987456 167.564136,74.113375 164.254962,77.4216506 L154.453065,87.2244509 C151.144686,90.5327265 145.730109,90.5327265 142.42173,87.2244509" id="Fill-5" stroke="none" fill="#FFFFFF" fill-rule="evenodd"></path>
                                    <path d="M142.42173,87.2244509 L142.42173,87.2244509 C139.112556,83.9161753 139.112556,78.5015458 142.42173,75.1924727 L152.223627,65.39047 C155.5328,62.0813968 160.946583,62.0813968 164.254962,65.39047 C167.564136,68.6987456 167.564136,74.113375 164.254962,77.4216506 L154.453065,87.2244509 C151.144686,90.5327265 145.730109,90.5327265 142.42173,87.2244509 Z" id="Stroke-7" stroke="#0077C0" stroke-width="2.025" fill="none" stroke-linecap="round" stroke-linejoin="round"></path>
                                    <path d="M142.42173,106.081594 L142.42173,106.081594 C139.112556,102.772521 139.112556,97.3578911 142.42173,94.0496155 L152.223627,84.2476128 C155.5328,80.9385397 160.946583,80.9385397 164.254962,84.2476128 C167.564136,87.5558884 167.564136,92.9705179 164.254962,96.2787935 L154.453065,106.081594 C151.144686,109.389869 145.730109,109.389869 142.42173,106.081594" id="Fill-9" stroke="none" fill="#FFFFFF" fill-rule="evenodd"></path>
                                    <path d="M142.42173,106.081594 L142.42173,106.081594 C139.112556,102.772521 139.112556,97.3578911 142.42173,94.0496155 L152.223627,84.2476128 C155.5328,80.9385397 160.946583,80.9385397 164.254962,84.2476128 C167.564136,87.5558884 167.564136,92.9705179 164.254962,96.2787935 L154.453065,106.081594 C151.144686,109.389869 145.730109,109.389869 142.42173,106.081594 Z" id="Stroke-11" stroke="#0077C0" stroke-width="2.025" fill="none" stroke-linecap="round" stroke-linejoin="round"></path>
                                    <path d="M142.42173,124.938737 L142.42173,124.938737 C139.112556,121.630461 139.112556,116.215832 142.42173,112.906758 L152.223627,103.104756 C155.5328,99.7956825 160.946583,99.7956825 164.254962,103.104756 C167.564136,106.413031 167.564136,111.827661 164.254962,115.135936 L154.453065,124.938737 C151.144686,128.247012 145.730109,128.247012 142.42173,124.938737" id="Fill-13" stroke="none" fill="#FFFFFF" fill-rule="evenodd"></path>
                                    <path d="M142.42173,124.938737 L142.42173,124.938737 C139.112556,121.630461 139.112556,116.215832 142.42173,112.906758 L152.223627,103.104756 C155.5328,99.7956825 160.946583,99.7956825 164.254962,103.104756 C167.564136,106.413031 167.564136,111.827661 164.254962,115.135936 L154.453065,124.938737 C151.144686,128.247012 145.730109,128.247012 142.42173,124.938737 Z" id="Stroke-15" stroke="#0077C0" stroke-width="2.025" fill="none" stroke-linecap="round" stroke-linejoin="round"></path>
                                    <path d="M140.305565,147.269567 L101.859849,147.269567 C95.5107383,147.269567 90.3157895,142.092232 90.3157895,135.764649 L90.3157895,49.6023651 C90.3157895,43.27397 95.5107383,38.096635 101.859849,38.096635 L140.305565,38.096635 C146.654675,38.096635 151.849624,43.27397 151.849624,49.6023651 L151.849624,135.764649 C151.849624,142.092232 146.654675,147.269567 140.305565,147.269567" id="Fill-17" stroke="none" fill="#FFFFFF" fill-rule="evenodd"></path>
                                    <path d="M140.305565,147.269567 L101.859849,147.269567 C95.5107383,147.269567 90.3157895,142.092232 90.3157895,135.764649 L90.3157895,49.6023651 C90.3157895,43.27397 95.5107383,38.096635 101.859849,38.096635 L140.305565,38.096635 C146.654675,38.096635 151.849624,43.27397 151.849624,49.6023651 L151.849624,135.764649 C151.849624,142.092232 146.654675,147.269567 140.305565,147.269567 Z" id="Stroke-19" stroke="#0077C0" stroke-width="2.025" fill="none"></path>
                                    <path d="M125.052632,138.833477 C125.052632,141.300288 123.052955,143.299643 120.586466,143.299643 C118.119977,143.299643 116.120301,141.300288 116.120301,138.833477 C116.120301,136.366666 118.119977,134.367312 120.586466,134.367312 C123.052955,134.367312 125.052632,136.366666 125.052632,138.833477" id="Fill-21" stroke="none" fill="#FFFFFF" fill-rule="evenodd"></path>
                                    <path d="M125.052632,138.833477 C125.052632,141.300288 123.052955,143.299643 120.586466,143.299643 C118.119977,143.299643 116.120301,141.300288 116.120301,138.833477 C116.120301,136.366666 118.119977,134.367312 120.586466,134.367312 C123.052955,134.367312 125.052632,136.366666 125.052632,138.833477 Z" id="Stroke-23" stroke="#0077C0" stroke-width="2.025" fill="none" stroke-linecap="round" stroke-linejoin="round"></path>
                                    <mask id="mask-4" fill="white">
                                        <use xlink:href="#path-3"></use>
                                    </mask>
                                    <g id="Clip-26" stroke="none" fill="none"></g>
                                    <polygon id="Stroke-25" stroke="#0077C0" stroke-width="2.025" fill="none" stroke-linecap="round" stroke-linejoin="round" mask="url(#mask-4)" points="94.2857143 129.404906 147.879699 129.404906 147.879699 47.0289659 94.2857143 47.0289659"></polygon>
                                    <g id="Group-29" stroke="none" stroke-width="1" fill="none" fill-rule="evenodd" mask="url(#mask-4)">
                                        <g transform="translate(12.902256, 79.780846)">
                                            <path d="M0.0984829502,110.12502 L57.9257768,57.0881253 C57.9257768,57.0881253 63.6518336,51.2697594 62.8335921,45.1739398 C62.0161673,39.0781203 60.6524316,35.8890356 65.8329941,23.0747579 C71.0135566,10.2612962 72.1037285,-2.20861253 79.7381987,0.840113283 C87.3726689,3.88720702 86.2816803,12.2002075 85.4634389,19.4050256 C84.646014,26.6090276 82.4648535,34.921212 82.4648535,34.921212 C82.4648535,34.921212 92.8570096,58.7887529 85.7378192,73.1975729" id="Fill-27" stroke="none" fill="#FFFFFF" fill-rule="evenodd"></path>
                                            <path d="M0.0984829502,110.12502 L57.9257768,57.0881253 C57.9257768,57.0881253 63.6518336,51.2697594 62.8335921,45.1739398 C62.0161673,39.0781203 60.6524316,35.8890356 65.8329941,23.0747579 C71.0135566,10.2612962 72.1037285,-2.20861253 79.7381987,0.840113283 C87.3726689,3.88720702 86.2816803,12.2002075 85.4634389,19.4050256 C84.646014,26.6090276 82.4648535,34.921212 82.4648535,34.921212 C82.4648535,34.921212 92.8570096,58.7887529 85.7378192,73.1975729" id="Stroke-28" stroke="#BD1A8D" stroke-width="2.025" fill="none" stroke-linecap="round" stroke-linejoin="round"></path>
                                        </g>
                                    </g>
                                    <path d="M137.954887,152.231973 C137.954887,152.231973 129.325156,162.166211 107.109677,165.80901 C94.6558038,181.971021 63.3902066,218.012119 54.5864662,224.683101" id="Stroke-30" stroke="#0077C0" stroke-width="2.025" fill="none" stroke-linecap="round" stroke-linejoin="round" mask="url(#mask-4)"></path>
                                    <path d="M85.8619808,88.9002616 C87.7847735,93.5061924 85.7483683,99.2721475 84.9899073,103.908177 C84.1099985,109.285288 84.1624953,114.341887 85.0894161,119.708423 C86.5781309,128.326444 91.381195,138.674738 86.7794992,147.067424 C83.0318556,153.902294 93.1817564,160.057093 96.9278329,153.226291 C102.912466,142.311813 99.4359256,130.721332 96.9873815,119.333408 C95.6020932,112.885756 96.3754414,107.475292 97.4496667,101.076449 C98.537212,94.5913764 98.560718,88.8522662 96.0103145,82.7413952 C94.7386386,79.6949079 90.4903167,79.0636465 87.970471,80.5531306 C84.9436788,82.3411624 84.6075426,85.8944485 85.8619808,88.9002616" id="Fill-31" stroke="none" fill="#D1D6E7" fill-rule="evenodd" mask="url(#mask-4)"></path>
                                    <path d="M12.9022556,188.953778 L70.2086874,136.195581 C70.2086874,136.195581 75.8831685,130.407789 75.0722971,124.344002 C74.262235,118.280214 72.9107827,115.107887 78.0446828,102.360946 C83.178583,89.6148161 84.2589355,77.2104339 91.8246405,80.2431393 C99.3903454,83.2742212 98.3091836,91.5435388 97.4983123,98.7104971 C96.6882501,105.876644 94.5267358,114.14515 94.5267358,114.14515 C94.5267358,114.14515 104.825288,137.887272 97.7702212,152.220377" id="Stroke-32" stroke="#0077C0" stroke-width="2.025" fill="none" stroke-linecap="round" stroke-linejoin="round" mask="url(#mask-4)"></path>
                                    <path d="M131.866929,174.610179 C139.541011,179.472356 147.473449,183.93151 155.782419,187.638839 C163.877857,191.250672 172.807861,195.307612 181.811215,192.627264 C184.988917,191.681211 188.255454,189.210468 191.616533,190.564399 C195.221297,192.017873 198.326464,195.091533 201.248255,197.556611 C208.282558,203.491898 214.846603,209.934606 220.984402,216.77791 C226.22814,222.624176 234.849257,214.013397 229.629154,208.194646 C223.491355,201.350534 216.92731,194.908635 209.892192,188.973348 C203.664743,183.717049 196.670375,177.184511 187.863437,178.086862 C183.70773,178.513355 180.09889,181.203414 175.964373,181.404926 C171.696195,181.613721 167.155805,179.416516 163.33751,177.767195 C154.523237,173.960324 146.131951,169.257576 138.036512,164.128336 C131.385261,159.913586 125.246648,170.415661 131.866929,174.610179" id="Fill-33" stroke="none" fill="#D1D6E7" fill-rule="evenodd" mask="url(#mask-4)"></path>
                                    <path d="M221.323308,217.735733 C221.323308,217.735733 194.093824,187.187294 189.936328,189.323606 C185.778018,191.459918 175.903152,196.266208 165.334556,191.816245 C165.238589,191.775003 165.141808,191.734587 165.045841,191.69417 C160.321488,189.69313 155.746778,187.383604 151.111886,185.198626 C146.394852,182.974882 141.691644,180.71567 137.087656,178.2519 C135.206536,177.245606 133.30183,176.172501 131.88672,174.549234 C130.47161,172.925142 129.615224,170.624688 130.202413,168.530443 C130.700142,166.757056 132.172995,165.386187 133.849168,164.723848 C135.525342,164.061508 137.384504,164.035939 139.162338,164.293286 C146.239515,165.319376 152.264306,170.180104 159.617186,169.919458" id="Stroke-34" stroke="#0077C0" stroke-width="2.025" fill="none" stroke-linecap="round" stroke-linejoin="round" mask="url(#mask-4)"></path>
                                    <g id="Group-37" stroke="none" stroke-width="1" fill="none" fill-rule="evenodd" mask="url(#mask-4)">
                                        <g transform="translate(121.082707, 107.570319)">
                                            <path d="M42.7839694,69.9475391 C42.7839694,69.9475391 49.2372837,65.5403207 37.5883454,53.7844865 L2.41137566,18.2820296 C0.786416915,16.6430419 -0.110534193,14.3699221 0.103297645,12.0610307 C0.252653471,10.4374898 0.93903735,8.59281568 2.72069729,6.79529496 C5.81064897,3.67666562 9.09158023,4.10673729 11.1115566,4.86363091 C12.1456212,5.25061411 13.07277,5.8806813 13.8521952,6.66765554 L41.2389935,34.3076869 L40.860299,33.7467239 L38.3898067,31.3898661 C35.2859804,28.2574159 35.2859804,23.1786679 38.3898067,20.0462177 C41.493633,16.9137675 46.2362926,17.2056309 49.3401188,20.3380811 L50.7863403,21.9038997 C47.6139572,18.7031583 47.6833302,13.4691292 50.9952752,10.3570038 C54.1488867,7.39284255 59.1135397,7.62047973 62.1610515,10.6960206 L64.8363979,13.3959601 C61.7325716,10.26351 61.5636282,5.35467682 64.4601518,2.43279104 C67.3550432,-0.489907727 72.2193094,-0.319992833 75.3231357,2.81327032 L93.4343659,23.7477608 C95.5212667,26.1720968 97.6302036,28.9126858 99.1857895,31.715875 C100.620585,34.301996 101.082527,37.3190016 101.993353,40.1782871 C104.103922,46.802529 107.06737,53.1812479 111.111403,58.8347798 C116.799983,66.7858213 124.733797,73.2710419 133.984881,76.2766656" id="Fill-35" stroke="none" fill="#FFFFFF" fill-rule="evenodd"></path>
                                            <path d="M42.7839694,69.9475391 C42.7839694,69.9475391 49.2372837,65.5403207 37.5883454,53.7844865 L2.41137566,18.2820296 C0.786416915,16.6430419 -0.110534193,14.3699221 0.103297645,12.0610307 C0.252653471,10.4374898 0.93903735,8.59281568 2.72069729,6.79529496 C5.81064897,3.67666562 9.09158023,4.10673729 11.1115566,4.86363091 C12.1456212,5.25061411 13.07277,5.8806813 13.8521952,6.66765554 L41.2389935,34.3076869 L40.860299,33.7467239 L38.3898067,31.3898661 C35.2859804,28.2574159 35.2859804,23.1786679 38.3898067,20.0462177 C41.493633,16.9137675 46.2362926,17.2056309 49.3401188,20.3380811 L50.7863403,21.9038997 C47.6139572,18.7031583 47.6833302,13.4691292 50.9952752,10.3570038 C54.1488867,7.39284255 59.1135397,7.62047973 62.1610515,10.6960206 L64.8363979,13.3959601 C61.7325716,10.26351 61.5636282,5.35467682 64.4601518,2.43279104 C67.3550432,-0.489907727 72.2193094,-0.319992833 75.3231357,2.81327032 L93.4343659,23.7477608 C95.5212667,26.1720968 97.6302036,28.9126858 99.1857895,31.715875 C100.620585,34.301996 101.082527,37.3190016 101.993353,40.1782871 C104.103922,46.802529 107.06737,53.1812479 111.111403,58.8347798 C116.799983,66.7858213 124.733797,73.2710419 133.984881,76.2766656" id="Stroke-36" stroke="#0077C0" stroke-width="2.025" fill="none" stroke-linecap="round" stroke-linejoin="round"></path>
                                        </g>
                                    </g>
                                    <path d="M182.413657,60.3777657 C183.305156,57.4925559 186.351926,55.8811748 189.219907,56.7780291 C192.087887,57.6748834 193.68883,60.7415995 192.798147,63.6251667 L191.183327,68.8502464 L180.798837,65.6020242 L182.413657,60.3777657 Z M193.25451,43.7202577 C194.688092,44.1686848 195.488971,45.7012215 195.043222,47.1434158 C194.597473,48.5864314 193.074087,49.3921219 191.640505,48.9436948 C190.206107,48.4952676 189.405228,46.9627309 189.850977,45.5197153 C190.296726,44.0775211 191.820111,43.2718305 193.25451,43.7202577 L193.25451,43.7202577 Z M195.568161,73.0848442 L197.974881,65.2997875 C198.878625,62.3899388 201.950704,60.7645958 204.846442,61.6655565 L209.939903,63.2580478 C212.830743,64.1672215 214.44638,67.2585765 213.550799,70.170889 L210.338302,80.5676642 L194.761567,75.6957415 L195.568161,73.0848442 Z M213.042188,44.1801829 C215.909352,45.0770372 217.511927,48.142932 216.619612,51.0281418 C215.72893,53.9125304 212.681343,55.5239115 209.814179,54.6278785 C206.946199,53.7302029 205.34444,50.6634868 206.235939,47.7799196 C207.127437,44.895531 210.174207,43.2841499 213.042188,44.1801829 L213.042188,44.1801829 Z M176.587893,70.0132004 L189.569322,74.0736836 L188.762728,76.6837595 C188.316162,78.1275964 189.117042,79.6601331 190.55144,80.1085603 L211.32042,86.6041835 C212.754002,87.0526107 214.277387,86.2469202 214.723137,84.8030833 L218.743044,71.7945895 C220.100702,67.3554893 218.532416,62.5369507 214.829267,59.7642583 C220.535022,57.8802072 223.643022,51.6999613 221.771038,45.9582869 C219.899054,40.2182552 213.755714,37.0907633 208.048326,38.973993 C202.342571,40.8580441 199.232939,47.0391113 201.105739,52.7799644 C201.483728,53.9388118 202.051936,55.0278492 202.787504,55.99862 C200.921235,56.0758218 199.104766,56.6334812 197.514437,57.6198567 C196.933983,56.2877159 196.094733,55.0853398 195.046487,54.0833598 C199.317844,52.645272 201.620882,47.9950989 200.191382,43.698904 C198.761065,39.4018878 194.138661,37.0850142 189.866488,38.523102 C185.595948,39.9620111 183.292094,44.6113629 184.72241,48.9083791 C185.0008,49.7444575 185.412261,50.530437 185.938016,51.2351082 C181.84545,51.8625777 178.462326,54.7798181 177.221413,58.753244 L174.799998,66.5892209 C174.354248,68.0314152 175.155128,69.5655945 176.587893,70.0132004 L176.587893,70.0132004 Z" id="Fill-38" stroke="none" fill="#0077C0" fill-rule="evenodd" mask="url(#mask-4)"></path>
                                    <path d="M182.413657,60.3777657 C183.305156,57.4925559 186.351926,55.8811748 189.219907,56.7780291 C192.087887,57.6748834 193.68883,60.7415995 192.798147,63.6251667 L191.183327,68.8502464 L180.798837,65.6020242 L182.413657,60.3777657 Z M193.25451,43.7202577 C194.688092,44.1686848 195.488971,45.7012215 195.043222,47.1434158 C194.597473,48.5864314 193.074087,49.3921219 191.640505,48.9436948 C190.206107,48.4952676 189.405228,46.9627309 189.850977,45.5197153 C190.296726,44.0775211 191.820111,43.2718305 193.25451,43.7202577 Z M195.568161,73.0848442 L197.974881,65.2997875 C198.878625,62.3899388 201.950704,60.7645958 204.846442,61.6655565 L209.939903,63.2580478 C212.830743,64.1672215 214.44638,67.2585765 213.550799,70.170889 L210.338302,80.5676642 L194.761567,75.6957415 L195.568161,73.0848442 Z M213.042188,44.1801829 C215.909352,45.0770372 217.511927,48.142932 216.619612,51.0281418 C215.72893,53.9125304 212.681343,55.5239115 209.814179,54.6278785 C206.946199,53.7302029 205.34444,50.6634868 206.235939,47.7799196 C207.127437,44.895531 210.174207,43.2841499 213.042188,44.1801829 Z M176.587893,70.0132004 L189.569322,74.0736836 L188.762728,76.6837595 C188.316162,78.1275964 189.117042,79.6601331 190.55144,80.1085603 L211.32042,86.6041835 C212.754002,87.0526107 214.277387,86.2469202 214.723137,84.8030833 L218.743044,71.7945895 C220.100702,67.3554893 218.532416,62.5369507 214.829267,59.7642583 C220.535022,57.8802072 223.643022,51.6999613 221.771038,45.9582869 C219.899054,40.2182552 213.755714,37.0907633 208.048326,38.973993 C202.342571,40.8580441 199.232939,47.0391113 201.105739,52.7799644 C201.483728,53.9388118 202.051936,55.0278492 202.787504,55.99862 C200.921235,56.0758218 199.104766,56.6334812 197.514437,57.6198567 C196.933983,56.2877159 196.094733,55.0853398 195.046487,54.0833598 C199.317844,52.645272 201.620882,47.9950989 200.191382,43.698904 C198.761065,39.4018878 194.138661,37.0850142 189.866488,38.523102 C185.595948,39.9620111 183.292094,44.6113629 184.72241,48.9083791 C185.0008,49.7444575 185.412261,50.530437 185.938016,51.2351082 C181.84545,51.8625777 178.462326,54.7798181 177.221413,58.753244 L174.799998,66.5892209 C174.354248,68.0314152 175.155128,69.5655945 176.587893,70.0132004 Z" id="Stroke-39" stroke="#FFFFFF" stroke-width="4.5" fill="none" mask="url(#mask-4)"></path>
                                    <path d="M80.088425,45.1059549 L57.7099841,50.7598997 L54.4507043,38.2045575 L66.6164105,44.1169546 C67.4675393,44.5306384 68.4987926,44.2721861 69.0440344,43.5056309 L76.8299565,32.552213 L80.088425,45.1059549 Z M73.091156,31.1927377 L66.8379149,39.9921194 L57.0649437,35.2415575 L73.091156,31.1927377 Z M51.0713414,32.8370707 C50.0417108,33.0971233 49.4210115,34.1309327 49.6847073,35.1471384 L54.4604407,53.5412629 C54.7241365,54.5566685 55.77324,55.1695926 56.8028706,54.9087398 L82.913621,48.3154047 C83.9432516,48.0553521 84.5639509,47.0223429 84.3002551,46.0061372 L79.5253331,27.6144132 C79.2608259,26.5990076 78.2125338,25.9860835 77.1820918,26.2469363 L51.0713414,32.8370707 Z" id="Fill-40" stroke="none" fill="#0077C0" fill-rule="evenodd" mask="url(#mask-4)"></path>
                                    <path d="M80.088425,45.1059549 L57.7099841,50.7598997 L54.4507043,38.2045575 L66.6164105,44.1169546 C67.4675393,44.5306384 68.4987926,44.2721861 69.0440344,43.5056309 L76.8299565,32.552213 L80.088425,45.1059549 Z M73.091156,31.1927377 L66.8379149,39.9921194 L57.0649437,35.2415575 L73.091156,31.1927377 Z M51.0713414,32.8370707 C50.0417108,33.0971233 49.4210115,34.1309327 49.6847073,35.1471384 L54.4604407,53.5412629 C54.7241365,54.5566685 55.77324,55.1695926 56.8028706,54.9087398 L82.913621,48.3154047 C83.9432516,48.0553521 84.5639509,47.0223429 84.3002551,46.0061372 L79.5253331,27.6144132 C79.2608259,26.5990076 78.2125338,25.9860835 77.1820918,26.2469363 L51.0713414,32.8370707 Z" id="Stroke-41" stroke="#FFFFFF" stroke-width="2.5" fill="none" mask="url(#mask-4)"></path>
                                    <path d="M27.3091597,87.5085338 L41.6481273,79.2933725 L44.5004445,84.2422148 C44.675178,84.5458655 45.0637521,84.650401 45.3682877,84.4761752 L50.3315525,81.6321464 L63.0072232,103.627739 L43.153332,115.002194 L27.3091597,87.5085338 Z M48.9178749,80.9792145 L45.2859134,83.0599684 L43.1990956,79.4385607 L48.9178749,80.9792145 Z M25.8888256,87.5906688 L42.3678631,116.183611 C42.5425967,116.488092 42.9320029,116.592627 43.2365385,116.418401 L64.1929152,104.411755 C64.4966187,104.236699 64.6014588,103.849254 64.4267253,103.545604 L51.1170214,80.4507296 C51.1103649,80.4382849 51.098716,80.4316477 51.0903954,80.4200327 C51.059609,80.3735725 51.0229981,80.3312605 50.9805628,80.294756 C50.9647536,80.280652 50.9506085,80.266548 50.9331352,80.2532737 C50.8715624,80.2093024 50.802501,80.1761166 50.7292794,80.1553754 L42.0458542,77.8166015 C41.9726325,77.7966899 41.8960826,77.7917121 41.8203647,77.7991789 C41.8003951,77.8016678 41.7795935,77.805816 41.759624,77.8107939 C41.7038757,77.8207497 41.6506235,77.8390019 41.5998676,77.8638913 C41.591547,77.8705285 41.5774019,77.8713581 41.565753,77.8779953 L26.1242998,86.7253473 C25.8197642,86.8995731 25.714092,87.2870181 25.8888256,87.5906688 L25.8888256,87.5906688 Z" id="Fill-42" stroke="none" fill="#0077C0" fill-rule="evenodd" mask="url(#mask-4)"></path>
                                    <path d="M62.8960816,98.5652099 L63.5301062,99.6304696 L65.1842282,98.7123363 C65.4887597,98.5426987 65.5944305,98.1672449 65.4188672,97.872992 L48.9408833,70.1641788 C48.7661521,69.869926 48.3767511,69.7686258 48.0722196,69.9382634 L27.1169567,81.5733118 C26.8115931,81.7421454 26.7067544,82.1175992 26.8814856,82.4126561 L27.8325226,84.0109477 L28.9358253,83.3983229 L28.3018006,82.3330631 L48.1545929,71.3098356 L63.9985522,97.952585 L62.8960816,98.5652099 Z" id="Fill-43" stroke="none" fill="#0077C0" fill-rule="evenodd" mask="url(#mask-4)"></path>
                                    <polygon id="Fill-44" stroke="none" fill="#0077C0" fill-rule="evenodd" mask="url(#mask-4)" points="34.7368421 92.5446375 47.9963624 84.7432516 48.6315789 85.8741965 35.371225 93.6755824"></polygon>
                                    <polygon id="Fill-45" stroke="none" fill="#0077C0" fill-rule="evenodd" mask="url(#mask-4)" points="32.7518797 88.5018798 37.0915299 85.7357328 37.7142857 86.9395106 33.3754538 89.7056576"></polygon>
                                    <polygon id="Fill-46" stroke="none" fill="#0077C0" fill-rule="evenodd" mask="url(#mask-4)" points="36.7218045 95.5888507 45.0553462 90.6981388 45.6541353 91.7623141 37.3205936 96.653026"></polygon>
                                    <polygon id="Fill-47" stroke="none" fill="#0077C0" fill-rule="evenodd" mask="url(#mask-4)" points="46.6466165 89.9692382 49.9789067 88.7131764 50.6165414 89.442077 47.285089 90.6981388"></polygon>
                                    <polygon id="Fill-48" stroke="none" fill="#0077C0" fill-rule="evenodd" mask="url(#mask-4)" points="37.7142857 99.4912605 50.9746396 91.69062 51.6090226 92.8223103 38.3495023 100.622951"></polygon>
                                    <polygon id="Fill-49" stroke="none" fill="#0077C0" fill-rule="evenodd" mask="url(#mask-4)" points="41.6842105 105.446256 54.9445644 97.6455072 55.5789474 98.7779428 42.3194271 106.577838"></polygon>
                                    <polygon id="Fill-50" stroke="none" fill="#0077C0" fill-rule="evenodd" mask="url(#mask-4)" points="44.6616541 99.5010155 52.9581072 94.6680636 53.593985 95.7891528 45.2975319 100.622951"></polygon>
                                    <polygon id="Fill-51" stroke="none" fill="#0077C0" fill-rule="evenodd" mask="url(#mask-4)" points="40.6917293 102.282391 44.1022924 99.6304696 44.6616541 100.948473 41.2518261 103.600394"></polygon>
                                    <polygon id="Fill-52" stroke="none" fill="#0077C0" fill-rule="evenodd" mask="url(#mask-4)" points="43.6691729 108.6318 45.2109647 107.570319 45.6541353 108.493801 44.1123436 109.555282"></polygon>
                                    <polygon id="Fill-53" stroke="none" fill="#0077C0" fill-rule="evenodd" mask="url(#mask-4)" points="46.6466165 106.444981 56.9084593 100.622951 57.5639098 101.748289 47.302067 107.570319"></polygon>
                                </g>
                            </g>
                        </g>
                    </g>
                </g>
            </g>
        </g>
    </g>
</svg>