<?xml version="1.0" encoding="UTF-8"?>
<svg width="264px" height="197px" viewBox="0 0 264 197" version="1.1" xmlns="http://www.w3.org/2000/svg" xmlns:xlink="http://www.w3.org/1999/xlink">
    <!-- Generator: Sketch 58 (84663) - https://sketch.com -->
    <title>Group</title>
    <desc>Created with Sketch.</desc>
    <defs>
        <rect id="path-1" x="0" y="0" width="264" height="197"></rect>
    </defs>
    <g id="Articles" stroke="none" stroke-width="1" fill="none" fill-rule="evenodd">
        <g id="PRM---Articles-" transform="translate(-660.000000, -1365.000000)">
            <g id="Group-23" transform="translate(396.000000, 1216.000000)">
                <g id="Group-26" transform="translate(243.000000, 149.000000)">
                    <g id="Group-2-Copy-7">
                        <g id="Group" transform="translate(21.000000, 0.000000)">
                            <mask id="mask-2" fill="white">
                                <use xlink:href="#path-1"></use>
                            </mask>
                            <use id="Rectangle" fill="#FFFFFF" fill-rule="nonzero" xlink:href="#path-1"></use>
                            <g id="Group-185" mask="url(#mask-2)">
                                <g transform="translate(29.500000, 36.000000)">
                                    <path d="M51.5,28 L46.5,32" id="Stroke-9" stroke="#645FAA" stroke-width="2.7" fill="none" stroke-linecap="round" stroke-linejoin="round"></path>
                                    <path d="M85.5,160.5 L98.5,160.5" id="Stroke-11" stroke="#5E50BF" stroke-width="2.7" fill="none" stroke-linecap="round" stroke-linejoin="round"></path>
                                    <path d="M78.157007,16.993042 C78.1451299,16.5146069 78.151381,16.0349062 78.1982646,15.5507754 C78.3914249,13.5497018 79.2384549,11.6207732 78.949652,9.57919712 C78.8471333,8.85711457 78.6677255,8.12743782 78.3032838,7.48762586 C78.2957824,7.47307029 76.9630386,5.83651862 76.9336582,6.03776512 C77.1149414,4.78915087 75.9040949,3.42725636 74.6369881,4.25122785 C70.2336826,7.114244 65.1627549,5.74475529 60.3287456,5.09545056 C55.7872899,4.48601543 51.1008075,4.68473052 47.1213296,7.23764987 C40.3519662,11.5796379 38.3122181,19.6598744 37.639595,27.2787629 C37.6314686,27.320531 37.6195914,27.3622992 37.61209,27.4047002 C37.5820845,27.5667099 37.5808343,27.7179612 37.590211,27.8647826 C37.5602055,28.2546185 37.5289498,28.6450874 37.5039452,29.0317591 C37.3739214,31.0651081 40.5001183,31.0575139 40.629517,29.0317591 C40.6538965,28.6602758 40.6826517,28.2830968 40.7145326,27.9040193 C41.0858505,26.4623856 41.4915497,24.9675925 41.9616357,23.4797607 C43.7063299,18.8783039 46.6449924,14.9033693 50.4900708,11.9074545 C57.9326823,8.40905634 66.2785841,10.2316661 71.6676949,15.4817947 C71.9083639,15.7741717 72.1377809,16.0766743 72.3534454,16.3905682 C72.9116725,17.6828491 73.6005485,18.9523475 74.2087848,20.2458941 C74.4932118,20.8527978 75.0420622,21.0717641 75.587787,21.0192375 C75.6227934,21.0951796 75.6546743,21.1742859 75.6896807,21.2514937 C76.4373174,24.2936066 77.5031374,27.2844586 77.2793465,30.4778227 C77.1693263,32.5193988 80.2636424,32.4953505 80.4049182,30.4778227 C80.6568393,25.812448 80.5624471,21.1198608 78.157007,16.993042" id="Fill-13" stroke="none" fill="#DCDEEE" fill-rule="evenodd"></path>
                                    <path d="M45.8136886,38.9238301 C44.3456368,35.2331957 41.0002433,33.170013 38.3416971,34.3170762 C35.6831508,35.4635015 34.7181335,39.3857176 36.1861853,43.0763521 C37.6548498,46.7676245 41.0002433,48.8295312 43.6581768,47.683106 C46.3173357,46.5366807 47.2817404,42.6151025 45.8136886,38.9238301" id="Fill-15" stroke="none" fill="#FFFFFF" fill-rule="evenodd"></path>
                                    <path d="M45.8136886,38.9238301 C44.3456368,35.2331957 41.0002433,33.170013 38.3416971,34.3170762 C35.6831508,35.4635015 34.7181335,39.3857176 36.1861853,43.0763521 C37.6548498,46.7676245 41.0002433,48.8295312 43.6581768,47.683106 C46.3173357,46.5366807 47.2817404,42.6151025 45.8136886,38.9238301 Z" id="Stroke-17" stroke="#5E50BF" stroke-width="2.7" fill="none" stroke-linecap="round" stroke-linejoin="round"></path>
                                    <path d="M84.8138069,43.0757729 C86.2818755,39.3851384 85.3168471,35.4629223 82.6582704,34.317135 C80.0003064,33.1700718 76.6548745,35.2326165 75.1861931,38.9232509 C73.7181245,42.6145233 74.6831529,46.5361015 77.3417296,47.6831647 C80.0003064,48.82959 83.3457382,46.7670453 84.8138069,43.0757729" id="Fill-19" stroke="none" fill="#FFFFFF" fill-rule="evenodd"></path>
                                    <path d="M84.8138069,43.0757729 C86.2818755,39.3851384 85.3168471,35.4629223 82.6582704,34.317135 C80.0003064,33.1700718 76.6548745,35.2326165 75.1861931,38.9232509 C73.7181245,42.6145233 74.6831529,46.5361015 77.3417296,47.6831647 C80.0003064,48.82959 83.3457382,46.7670453 84.8138069,43.0757729 Z" id="Stroke-21" stroke="#5E50BF" stroke-width="2.7" fill="none" stroke-linecap="round" stroke-linejoin="round"></path>
                                    <path d="M79.5,36.4996884 C79.5,51.1349702 78.0316058,63 60,63 C41.9677688,63 40.5,51.1349702 40.5,36.4996884 C40.5,21.8650298 49.2303165,10 60,10 C70.7696835,10 79.5,21.8650298 79.5,36.4996884" id="Fill-23" stroke="none" fill="#FFFFFF" fill-rule="evenodd"></path>
                                    <path d="M79.5,36.4996884 C79.5,51.1349702 78.0316058,63 60,63 C41.9677688,63 40.5,51.1349702 40.5,36.4996884 C40.5,21.8650298 49.2303165,10 60,10 C70.7696835,10 79.5,21.8650298 79.5,36.4996884 Z" id="Stroke-25" stroke="#5E50BF" stroke-width="2.7" fill="none" stroke-linecap="round" stroke-linejoin="round"></path>
                                    <path d="M55.5,39 C55.5,40.1046431 54.604488,41 53.4996534,41 C52.395512,41 51.5,40.1046431 51.5,39 C51.5,37.8953569 52.395512,37 53.4996534,37 C54.604488,37 55.5,37.8953569 55.5,39" id="Fill-27" stroke="none" fill="#5E50BF" fill-rule="evenodd"></path>
                                    <path d="M69.5,39 C69.5,40.1046431 68.604488,41 67.4996534,41 C66.395512,41 65.5,40.1046431 65.5,39 C65.5,37.8953569 66.395512,37 67.4996534,37 C68.604488,37 69.5,37.8953569 69.5,39" id="Fill-29" stroke="none" fill="#5E50BF" fill-rule="evenodd"></path>
                                    <g id="Group-34" stroke="none" stroke-width="1" fill="none" fill-rule="evenodd" transform="translate(48.500000, 32.000000)">
                                        <path d="M0.4384,1.68253333 C2.5264,-0.207466667 5.9104,-0.207466667 7.99773333,1.68253333" id="Fill-31" fill="#FFFFFF"></path>
                                        <path d="M0.4384,1.68253333 C2.5264,-0.207466667 5.9104,-0.207466667 7.99773333,1.68253333" id="Stroke-33" stroke="#5E50BF" stroke-width="2.7" stroke-linecap="round" stroke-linejoin="round"></path>
                                    </g>
                                    <g id="Group-38" stroke="none" stroke-width="1" fill="none" fill-rule="evenodd" transform="translate(63.500000, 32.000000)">
                                        <path d="M0.2236,1.68253333 C2.31093333,-0.207466667 5.69493333,-0.207466667 7.78293333,1.68253333" id="Fill-35" fill="#FFFFFF"></path>
                                        <path d="M0.2236,1.68253333 C2.31093333,-0.207466667 5.69493333,-0.207466667 7.78293333,1.68253333" id="Stroke-37" stroke="#5E50BF" stroke-width="2.7" stroke-linecap="round" stroke-linejoin="round"></path>
                                    </g>
                                    <g id="Group-42" stroke="none" stroke-width="1" fill="none" fill-rule="evenodd" transform="translate(58.500000, 53.000000)">
                                        <path d="M0.4989,1.11546667 C2.5179,2.38946667 4.6713,1.22946667 5.6013,0.259466667" id="Fill-39" fill="#FFFFFF"></path>
                                        <path d="M0.4989,1.11546667 C2.5179,2.38946667 4.6713,1.22946667 5.6013,0.259466667" id="Stroke-41" stroke="#5E50BF" stroke-width="2.7" stroke-linecap="round" stroke-linejoin="round"></path>
                                    </g>
                                    <path d="M55.5,44 C55.5,45.6235668 58.1019472,45.9361439 58.2952589,46.5972835 C58.4659941,47.1836303 59.1129533,48 60.5,48" id="Stroke-43" stroke="#5E50BF" stroke-width="2.7" fill="none" stroke-linecap="round" stroke-linejoin="round"></path>
                                    <path d="M65.5,44 C65.5,45.7223496 62.8976856,45.9361439 62.7043466,46.5972835 C62.5335874,47.1836303 61.8872424,48 60.5,48" id="Stroke-45" stroke="#5E50BF" stroke-width="2.7" fill="none" stroke-linecap="round" stroke-linejoin="round"></path>
                                    <path d="M79.763718,32 C79.763718,32 81.5,32.1395799 81.5,26.13826 C81.5,20.0353397 78.3990901,16.5244829 78.3990901,16.5244829 C84.4694404,6.83419198 72.6555173,0 72.6555173,0 C69.3820538,2.80843459 63.7876483,2.73881953 60.0540415,2.73881953 C44.7454322,2.73881953 38.5,14.6988123 38.5,26.1376328 C38.5,32.1395799 40.236282,32 40.236282,32" id="Stroke-47" stroke="#5E50BF" stroke-width="2.7" fill="none" stroke-linejoin="round"></path>
                                    <path d="M73.4316026,172.42135 C73.4347288,172.471329 73.435354,172.521307 73.4391055,172.570661 C73.4409812,172.590652 73.4484841,172.60752 73.4503599,172.626887 C73.4084686,172.590652 73.3690782,172.553793 73.3296879,172.516934 C73.363451,172.485073 73.3984647,172.455086 73.4316026,172.42135 M86.0127501,134.2422 C86.0296316,133.644958 85.709507,133.206397 85.2712114,132.954631 C85.3331105,131.696424 85.3981358,130.436967 85.4650369,129.17876 C85.4800427,128.908877 85.431899,128.677727 85.3443649,128.480312 C86.4898108,122.264244 86.798681,115.877 86.2040746,109.495379 C86.0196278,107.511235 82.8909098,107.491869 83.0778576,109.495379 C83.9200604,118.5421 82.9896983,127.610062 80.2292487,136.273824 C77.3387485,145.345534 71.4352004,153.368947 65.5785456,160.763881 C61.1211854,166.393951 58.8496762,175.069583 66.6033195,178.033928 C70.0990553,179.370227 77.7145198,179.023501 81.4803607,178.727379 C81.884268,178.695518 84.5034125,178.76049 84.8197857,178.651162 C86.015251,179.471433 84.9179489,172.263918 84.9660926,170.590265 C85.3149785,158.474869 85.6638643,146.358222 86.0127501,134.2422" id="Fill-49" stroke="none" fill="#DCDEEE" fill-rule="evenodd"></path>
                                    <path d="M69.3097014,62 C69.3097014,70.8498067 72.6965898,74.5338663 78.119092,77.9923969 C81.4885767,80.1412217 85.2372139,82.3354043 88.6906094,85.1356172 C97.5,92.2782074 97.3533115,106.564018 97.3533115,106.564018 L97.5,169.071447 L85.1669774,169.071447 L85.1669774,177.9937 C85.1669774,177.9937 78.119092,178 69.3097014,178 C60.5003108,178 60.5003108,169.071447 60.5003108,169.071447 C60.5003108,169.071447 60.5003108,178 51.6902986,178 C42.880908,178 35.8336441,177.9937 35.8336441,177.9937 L35.8336441,169.071447 L23.5,169.071447 L23.6473101,106.564018 C23.6473101,106.564018 23.5,92.2782074 32.3100122,85.1356172 C35.7627861,82.3354043 39.5120449,80.1412217 42.880908,77.9923969 C48.3034102,74.5338663 51.6902986,70.8498067 51.6902986,62" id="Stroke-55" stroke="#5E50BF" stroke-width="2.7" fill="none" stroke-linecap="round" stroke-linejoin="round"></path>
                                    <g id="Group-60" stroke="none" stroke-width="1" fill="none" fill-rule="evenodd" transform="translate(59.500000, 95.000000)">
                                        <path d="M0.6664,74.891 L0.6664,0.481" id="Fill-57" fill="#5E50BF"></path>
                                        <path d="M0.6664,74.891 L0.6664,0.481" id="Stroke-59" stroke="#645FAA" stroke-width="2.7" stroke-linecap="round" stroke-linejoin="round"></path>
                                    </g>
                                    <path d="M49.5905009,72 L40.5,91.4616825 C40.5,91.4616825 47.7727856,89.7421438 51.4088577,89.6922117 C55.2604387,89.6397829 59.1832147,91.3381004 60.5,95 L49.5905009,72 Z" id="Fill-61" stroke="none" fill="#FFFFFF" fill-rule="evenodd"></path>
                                    <path d="M49.5905009,72 L40.5,91.4616825 C40.5,91.4616825 47.7727856,89.7421438 51.4088577,89.6922117 C55.2604387,89.6397829 59.1832147,91.3381004 60.5,95 L49.5905009,72 Z" id="Stroke-63" stroke="#5E50BF" stroke-width="2.7" fill="none" stroke-linecap="round" stroke-linejoin="round"></path>
                                    <path d="M71.4092075,72 L80.5,91.4616825 C80.5,91.4616825 73.2269812,89.7421438 69.5907925,89.6922117 C65.7390879,89.6397829 61.8161861,91.3381004 60.5,95 L71.4092075,72 Z" id="Fill-65" stroke="none" fill="#FFFFFF" fill-rule="evenodd"></path>
                                    <path d="M71.4092075,72 L80.5,91.4616825 C80.5,91.4616825 73.2269812,89.7421438 69.5907925,89.6922117 C65.7390879,89.6397829 61.8161861,91.3381004 60.5,95 L71.4092075,72 Z" id="Stroke-67" stroke="#5E50BF" stroke-width="2.7" fill="none" stroke-linecap="round" stroke-linejoin="round"></path>
                                    <path d="M65.5,100.00035 C65.5,101.104572 64.6048853,102 63.5003502,102 C62.3951147,102 61.5,101.104572 61.5,100.00035 C61.5,98.8954283 62.3951147,98 63.5003502,98 C64.6048853,98 65.5,98.8954283 65.5,100.00035" id="Fill-69" stroke="none" fill="#5E50BF" fill-rule="evenodd"></path>
                                    <path d="M65.5,111 C65.5,112.104729 64.6048853,113 63.5003502,113 C62.3951147,113 61.5,112.104729 61.5,111 C61.5,109.895271 62.3951147,109 63.5003502,109 C64.6048853,109 65.5,109.895271 65.5,111" id="Fill-71" stroke="none" fill="#5E50BF" fill-rule="evenodd"></path>
                                    <path d="M65.5,121 C65.5,122.104729 64.6048853,123 63.5003502,123 C62.3951147,123 61.5,122.104729 61.5,121 C61.5,119.895271 62.3951147,119 63.5003502,119 C64.6048853,119 65.5,119.895271 65.5,121" id="Fill-73" stroke="none" fill="#5E50BF" fill-rule="evenodd"></path>
                                    <path d="M65.5,133 C65.5,134.104729 64.6048853,135 63.5003502,135 C62.3951147,135 61.5,134.104729 61.5,133 C61.5,131.895271 62.3951147,131 63.5003502,131 C64.6048853,131 65.5,131.895271 65.5,133" id="Fill-75" stroke="none" fill="#5E50BF" fill-rule="evenodd"></path>
                                    <path d="M65.5,143 C65.5,144.104729 64.6048853,145 63.5003502,145 C62.3951147,145 61.5,144.104729 61.5,143 C61.5,141.895271 62.3951147,141 63.5003502,141 C64.6048853,141 65.5,141.895271 65.5,143" id="Fill-77" stroke="none" fill="#5E50BF" fill-rule="evenodd"></path>
                                    <path d="M65.5,154 C65.5,155.104729 64.6048853,156 63.5003502,156 C62.3951147,156 61.5,155.104729 61.5,154 C61.5,152.895271 62.3951147,152 63.5003502,152 C64.6048853,152 65.5,152.895271 65.5,154" id="Fill-79" stroke="none" fill="#5E50BF" fill-rule="evenodd"></path>
                                    <path d="M22.5,160.5 L35.5,160.5" id="Stroke-83" stroke="#5E50BF" stroke-width="2.7" fill="none" stroke-linecap="round" stroke-linejoin="round"></path>
                                    <polyline id="Stroke-89" stroke="#5E50BF" stroke-width="2.7" fill="none" stroke-linecap="round" stroke-linejoin="round" points="35 107 35 169.131418 35 178 35 169.131418"></polyline>
                                    <path d="M86,108 L86,170" id="Stroke-91" stroke="#5E50BF" stroke-width="2.7" fill="none" stroke-linecap="round" stroke-linejoin="round"></path>
                                    <path d="M58.5,39.7099517 C58.5,43.626063 55.6224459,46 52.0728917,46 C48.523949,46 46.5,44.5949782 46.5,40.6788669 C46.5,37.095208 47.1946242,35 51.7604331,35 C55.2262166,35 58.5,35.22943 58.5,39.7099517 Z" id="Stroke-93" stroke="#5E50BF" stroke-width="2.7" fill="none" stroke-linecap="round"></path>
                                    <path d="M62.5,39.7099517 C62.5,43.626063 65.3775541,46 68.9271083,46 C72.476051,46 74.5,44.5949782 74.5,40.6788669 C74.5,37.095208 73.8053758,35 69.2395669,35 C65.7737834,35 62.5,35.22943 62.5,39.7099517 Z" id="Stroke-95" stroke="#5E50BF" stroke-width="2.7" fill="none" stroke-linecap="round"></path>
                                    <path d="M58.5,39 C58.5,37.5266175 59.3951507,37 60.5006553,37 C61.6048493,37 62.5,37.5266175 62.5,39" id="Stroke-97" stroke="#5E50BF" stroke-width="2.7" fill="none" stroke-linecap="round"></path>
                                    <path d="M40.5,34 L45.5,38" id="Stroke-99" stroke="#5E50BF" stroke-width="2.7" fill="none" stroke-linecap="round" stroke-linejoin="round"></path>
                                    <path d="M79.5,34 L74.5,38" id="Stroke-101" stroke="#5E50BF" stroke-width="2.7" fill="none" stroke-linecap="round" stroke-linejoin="round"></path>
                                    <path d="M126.813807,53.9243119 C125.345738,50.232976 122.000306,48.1703958 119.34173,49.3168407 C116.683153,50.4632857 115.718125,54.3855694 117.186193,58.0762673 C118.654874,61.7676033 122.000306,63.8295455 124.65827,62.6831005 C127.316847,61.5366555 128.281875,57.6150098 126.813807,53.9243119" id="Fill-109" stroke="none" fill="#FFFFFF" fill-rule="evenodd"></path>
                                    <path d="M126.813807,53.9243119 C125.345738,50.232976 122.000306,48.1703958 119.34173,49.3168407 C116.683153,50.4632857 115.718125,54.3855694 117.186193,58.0762673 C118.654874,61.7676033 122.000306,63.8295455 124.65827,62.6831005 C127.316847,61.5366555 128.281875,57.6150098 126.813807,53.9243119 Z" id="Stroke-111" stroke="#5E50BF" stroke-width="2.7" fill="none" stroke-linecap="round"></path>
                                    <path d="M165.813815,58.0756881 C167.281867,54.3849902 166.316849,50.4627065 163.658303,49.3168995 C161.000369,48.1704545 157.654976,50.2323967 156.186311,53.9237327 C154.71826,57.6144306 155.682664,61.5360763 158.341823,62.6831593 C161.000369,63.8296042 164.345763,61.767024 165.813815,58.0756881" id="Fill-113" stroke="none" fill="#FFFFFF" fill-rule="evenodd"></path>
                                    <path d="M165.813815,58.0756881 C167.281867,54.3849902 166.316849,50.4627065 163.658303,49.3168995 C161.000369,48.1704545 157.654976,50.2323967 156.186311,53.9237327 C154.71826,57.6144306 155.682664,61.5360763 158.341823,62.6831593 C161.000369,63.8296042 164.345763,61.767024 165.813815,58.0756881 Z" id="Stroke-115" stroke="#5E50BF" stroke-width="2.7" fill="none" stroke-linecap="round"></path>
                                    <path d="M145.456033,161.66591 C145.442909,161.671587 145.429786,161.676634 145.416662,161.68168 C145.469156,161.630585 145.521025,161.578227 145.57352,161.527132 C145.534774,161.573812 145.494778,161.619861 145.456033,161.66591 M163.775853,146.939642 C163.49776,147.268925 163.218416,147.597577 162.940322,147.92686 C163.300282,147.403288 163.647118,146.872145 163.976456,146.331541 C163.915213,146.538447 163.84897,146.740306 163.775853,146.939642 M160.831809,167.845329 C160.764941,168.004924 160.703698,168.16578 160.641205,168.326637 C160.616208,168.206783 160.579337,168.091345 160.526218,167.981584 C160.612458,167.905256 160.698698,167.829558 160.784314,167.75323 C160.800562,167.78414 160.816185,167.814419 160.831809,167.845329 M173.471016,186.631492 C173.309784,185.626611 172.951699,184.78511 172.463629,184.056524 C172.716726,183.804831 172.885457,183.444007 172.885457,182.964592 C172.891081,178.142677 172.40801,173.379428 171.437494,168.703861 C171.033789,165.783209 170.565717,162.87265 170.027027,159.972184 C169.268362,151.093528 168.510947,142.214241 167.752907,133.335585 C167.697914,132.695313 167.349828,132.25753 166.906127,132.021607 C167.457316,128.10049 167.361076,124.096106 166.623659,120.137771 C166.253076,118.145672 163.241538,118.989065 163.611497,120.976118 C165.323805,130.175225 162.953446,139.974865 157.11535,147.282803 C151.681585,154.084831 142.437621,157.428126 138.726162,165.683541 C135.540895,172.769434 138.924265,180.328435 144.699868,184.828636 C152.089664,190.585412 162.046672,190.218911 170.876307,189.776713 C171.566855,189.742018 172.305522,189.234847 172.424883,188.514461 C173.1723,188.282323 173.621624,187.570138 173.471016,186.631492" id="Fill-117" stroke="none" fill="#B2E0FD" fill-rule="evenodd"></path>
                                    <path d="M111.16653,156 L100.5,156 L100.69128,117.108871 C100.69128,117.108871 100.5,102.968966 111.928515,95.8987018 C116.408232,93.127712 121.271763,90.9559394 125.642356,88.8290612 C132.677073,85.4058537 132.49959,81.7594206 132.49959,73" id="Stroke-119" stroke="#5E50BF" stroke-width="2.7" fill="none" stroke-linejoin="round"></path>
                                    <path d="M150.50041,73 C150.50041,81.8033222 150.32292,85.468031 157.357285,88.909022 C161.72805,91.0459333 166.591772,93.2285907 171.071664,96.0140952 C182.5,103.119168 182.309967,117.329941 182.309967,117.329941 L182.5,139.410313 L169.119904,140" id="Stroke-121" stroke="#5E50BF" stroke-width="2.7" fill="none" stroke-linejoin="round"></path>
                                    <path d="M153.5,87 C149.365671,90.32373 146.251852,92 141,92 C135.748778,92 132.634329,90.3231421 128.5,87" id="Stroke-123" stroke="#5E50BF" stroke-width="2.7" fill="none"></path>
                                    <path d="M160.5,51.5 C160.5,66.1354539 151.769683,78 140.999375,78 C130.230317,78 121.5,66.1354539 121.5,51.5 C121.5,36.8651693 130.230317,25 140.999375,25 C151.769683,25 160.5,36.8651693 160.5,51.5" id="Fill-125" stroke="none" fill="#FFFFFF" fill-rule="evenodd"></path>
                                    <path d="M160.5,51.5 C160.5,66.1354539 151.769683,78 140.999375,78 C130.230317,78 121.5,66.1354539 121.5,51.5 C121.5,36.8651693 130.230317,25 140.999375,25 C151.769683,25 160.5,36.8651693 160.5,51.5 Z" id="Stroke-127" stroke="#5E50BF" stroke-width="2.7" fill="none" stroke-linecap="round" stroke-linejoin="round"></path>
                                    <path d="M135.5,54 C135.5,55.1046431 134.604488,56 133.499653,56 C132.395512,56 131.5,55.1046431 131.5,54 C131.5,52.8953569 132.395512,52 133.499653,52 C134.604488,52 135.5,52.8953569 135.5,54" id="Fill-129" stroke="none" fill="#5E50BF" fill-rule="evenodd"></path>
                                    <path d="M149.5,54 C149.5,55.1046431 148.604488,56 147.499653,56 C146.395512,56 145.5,55.1046431 145.5,54 C145.5,52.8953569 146.395512,52 147.499653,52 C148.604488,52 149.5,52.8953569 149.5,54" id="Fill-131" stroke="none" fill="#5E50BF" fill-rule="evenodd"></path>
                                    <g id="Group-136" stroke="none" stroke-width="1" fill="none" fill-rule="evenodd" transform="translate(140.500000, 53.000000)">
                                        <path d="M0.25572,0.5795 C0.25572,4.570125 2.75832,4.756375 2.75832,7.04825 C2.75832,9.25825 0.20712,9.437625 0.20712,9.437625" id="Fill-133" fill="#FFFFFF"></path>
                                        <path d="M0.25572,0.5795 C0.25572,4.570125 2.75832,4.756375 2.75832,7.04825 C2.75832,9.25825 0.20712,9.437625 0.20712,9.437625" id="Stroke-135" stroke="#5E50BF" stroke-width="2.7" stroke-linecap="round" stroke-linejoin="round"></path>
                                    </g>
                                    <path d="M130.5,50 C132.433504,47.3333333 135.567114,47.3333333 137.5,50" id="Stroke-137" stroke="#5E50BF" stroke-width="2.7" fill="none" stroke-linecap="round" stroke-linejoin="round"></path>
                                    <path d="M144.5,50 C146.433057,47.3333333 149.566943,47.3333333 151.5,50" id="Stroke-139" stroke="#5E50BF" stroke-width="2.7" fill="none" stroke-linecap="round" stroke-linejoin="round"></path>
                                    <path d="M139.5,69.2078412 C141.478481,71.0054927 143.588664,69.3686985 144.5,68" id="Stroke-141" stroke="#5E50BF" stroke-width="2.7" fill="none" stroke-linecap="round" stroke-linejoin="round"></path>
                                    <path d="M100.5,147.5 L113.5,147.5" id="Stroke-143" stroke="#5E50BF" stroke-width="2.7" fill="none" stroke-linejoin="round"></path>
                                    <path d="M166.38861,118 L173.5,189 C173.5,189 124.275937,188.991233 112.166693,188.993112 C110.468338,188.993112 109.5,188.993738 109.5,188.994364" id="Stroke-145" stroke="#5E50BF" stroke-width="2.7" fill="none" stroke-linecap="round" stroke-linejoin="round"></path>
                                    <g id="Group-150" stroke="none" stroke-width="1" fill="none" fill-rule="evenodd" transform="translate(109.500000, 117.000000)">
                                        <path d="M5.47992,0.609808696 L0.37752,71.5993043" id="Fill-147" fill="#FFFFFF"></path>
                                        <path d="M5.47992,0.609808696 L0.37752,71.5993043" id="Stroke-149" stroke="#5E50BF" stroke-width="2.7" stroke-linecap="round" stroke-linejoin="round"></path>
                                    </g>
                                    <g id="Group-154" stroke="none" stroke-width="1" fill="none" fill-rule="evenodd" transform="translate(168.500000, 65.000000)">
                                        <path d="M4.775625,8.78484923 C4.775625,8.78484923 1.4875,8.77791077 1.295,12.1960492 C1.13375,15.0389262 0.498125,20.8003723 2.37625,22.9046185 C3.434375,24.0885723 4.744375,25.6478338 4.66,27.1446492 C4.575625,28.6414646 0.56,71.3445415 0.37375,74.1350646 C0.068125,78.7207569 0.970625,81.4728031 6.965,81.8178338 C12.959375,82.1628646 14.4975,77.7493723 14.36375,72.7517877 C14.275625,69.4616954 15.42375,36.0265108 15.42375,36.0265108 C15.42375,36.0265108 15.714375,27.4341723 15.753125,26.7491569 C15.8225,25.5254646 17.994375,21.8802492 17.994375,21.8802492 C18.821875,20.6332185 19.265,18.2653108 19.319375,17.2983415 C19.491875,14.2372185 19.82125,8.40449538 19.82125,8.40449538 C19.880625,7.36120308 19.09,6.46677231 18.05625,6.40748 C17.0225,6.34818769 16.136875,7.14548 16.0775,8.18940308 L15.67375,15.3341262 L16.330625,3.71157231 C16.389375,2.66828 15.59875,1.77448 14.565,1.71455692 C13.531875,1.65526462 12.645625,2.45318769 12.586875,3.49648 L11.993125,13.7344954 L12.640625,2.27657231 C12.699375,1.23264923 11.909375,0.338849231 10.875625,0.279556923 C9.84125,0.219633846 8.955,1.01755692 8.896875,2.06084923 L8.24125,13.6682646 L8.780625,4.10895692 C8.84,3.06566462 8.049375,2.17186462 7.015625,2.11194154 C5.981875,2.05201846 5.09625,2.84994154 5.036875,3.89323385 L4.61625,11.3457723 C4.61625,11.3457723 4.3975,15.5151569 4.95625,16.2247723" id="Fill-151" fill="#FFFFFF"></path>
                                        <path d="M4.775625,8.78484923 C4.775625,8.78484923 1.4875,8.77791077 1.295,12.1960492 C1.13375,15.0389262 0.498125,20.8003723 2.37625,22.9046185 C3.434375,24.0885723 4.744375,25.6478338 4.66,27.1446492 C4.575625,28.6414646 0.56,71.3445415 0.37375,74.1350646 C0.068125,78.7207569 0.970625,81.4728031 6.965,81.8178338 C12.959375,82.1628646 14.4975,77.7493723 14.36375,72.7517877 C14.275625,69.4616954 15.42375,36.0265108 15.42375,36.0265108 C15.42375,36.0265108 15.714375,27.4341723 15.753125,26.7491569 C15.8225,25.5254646 17.994375,21.8802492 17.994375,21.8802492 C18.821875,20.6332185 19.265,18.2653108 19.319375,17.2983415 C19.491875,14.2372185 19.82125,8.40449538 19.82125,8.40449538 C19.880625,7.36120308 19.09,6.46677231 18.05625,6.40748 C17.0225,6.34818769 16.136875,7.14548 16.0775,8.18940308 L15.67375,15.3341262 L16.330625,3.71157231 C16.389375,2.66828 15.59875,1.77448 14.565,1.71455692 C13.531875,1.65526462 12.645625,2.45318769 12.586875,3.49648 L11.993125,13.7344954 L12.640625,2.27657231 C12.699375,1.23264923 11.909375,0.338849231 10.875625,0.279556923 C9.84125,0.219633846 8.955,1.01755692 8.896875,2.06084923 L8.24125,13.6682646 L8.780625,4.10895692 C8.84,3.06566462 8.049375,2.17186462 7.015625,2.11194154 C5.981875,2.05201846 5.09625,2.84994154 5.036875,3.89323385 L4.61625,11.3457723 C4.61625,11.3457723 4.3975,15.5151569 4.95625,16.2247723" id="Stroke-153" stroke="#5E50BF" stroke-width="2.7" stroke-linecap="round" stroke-linejoin="round"></path>
                                    </g>
                                    <path d="M156.5,19.5003197 C156.5,27.5081689 150.008026,34 141.999361,34 C133.991974,34 127.5,27.5081689 127.5,19.5003197 C127.5,11.4924705 133.991974,5 141.999361,5 C150.008026,5 156.5,11.4924705 156.5,19.5003197" id="Fill-155" stroke="none" fill="#FFFFFF" fill-rule="evenodd"></path>
                                    <path d="M156.5,19.5003197 C156.5,27.5081689 150.008026,34 141.999361,34 C133.991974,34 127.5,27.5081689 127.5,19.5003197 C127.5,11.4924705 133.991974,5 141.999361,5 C150.008026,5 156.5,11.4924705 156.5,19.5003197 Z" id="Stroke-157" stroke="#BD1A8D" stroke-width="2.7" fill="none" stroke-linecap="round"></path>
                                    <path d="M150.483094,19.9762074 C149.61306,13.5112436 144.508361,8.38599195 138.003287,8.0204437 C129.973634,7.57092668 127.710675,14.6123077 127.500774,21.4573407 C127.457924,22.8709202 129.204824,23.4770106 130.151864,22.5729258 C134.849801,18.0859631 141.437469,19.542474 147.076236,20.8834489 C147.221552,20.9175415 147.368731,20.9289057 147.514048,20.9219609 C147.879201,22.778744 150.74516,21.9276921 150.483094,19.9762074" id="Fill-159" stroke="none" fill="#B2E0FD" fill-rule="evenodd"></path>
                                    <path d="M156.5,19.5003197 C156.5,27.5081689 150.008026,34 141.999361,34 C133.991974,34 127.5,27.5081689 127.5,19.5003197 C127.5,11.4924705 133.991974,5 141.999361,5 C150.008026,5 156.5,11.4924705 156.5,19.5003197 Z" id="Stroke-161" stroke="#5E50BF" stroke-width="2.7" fill="none" stroke-linecap="round"></path>
                                    <path d="M165.5,43 L118.5,43 C118.5,30.2969797 129.021113,20 141.999362,20 C154.978887,20 165.5,30.2969797 165.5,43" id="Fill-163" stroke="none" fill="#FFFFFF" fill-rule="evenodd"></path>
                                    <path d="M165.5,43 L118.5,43 C118.5,30.2969797 129.021113,20 141.999362,20 C154.978887,20 165.5,30.2969797 165.5,43 Z" id="Stroke-165" stroke="#BD1A8D" stroke-width="2.7" fill="none" stroke-linecap="round" stroke-linejoin="round"></path>
                                    <path d="M143.76706,43.1084009 C147.055123,43.1938521 156.004458,43.7178685 152.829221,37.980077 C151.299949,35.2173669 148.497358,32.5382229 146.407181,30.1537597 C144.506552,27.9854375 142.345456,26.2324329 139.314635,26.0175484 C134.346436,25.6650625 127.922462,30.6784044 128.983024,36.037949 C129.264121,37.4592022 130.53744,38.4682794 132.02545,37.8720065 C134.284543,36.9672299 134.347725,33.8331844 133.967341,31.8998528 C133.677863,30.4264493 131.763694,30.5552543 131.020978,31.5241192 C129.522653,33.4832118 128.424053,35.5528882 127.570446,37.8437322 C127.288704,38.5995977 127.890226,39.6224979 128.696124,39.7758072 C131.683104,40.3450625 133.819056,39.1405787 134.953115,36.4275056 C135.550769,34.9974559 133.243322,33.7050077 132.258838,34.8994385 C131.15508,36.2396388 128.886316,38.7987742 130.757933,40.4229738 C132.590223,42.0138726 135.390234,39.6319226 136.715131,38.4927838 C135.798341,38.1220767 134.881552,37.7526263 133.964118,37.3819192 C133.919632,38.9200394 133.419331,41.6928026 135.248396,42.539774 C136.999451,43.3509313 138.060013,41.8285191 138.595774,40.4814073 L135.430207,40.0635764 C135.428918,40.619637 135.427628,41.176326 135.426339,41.7323866 C135.425049,42.8897466 136.809904,43.7335764 137.851769,43.0882948 C138.521631,42.6736055 138.833675,42.3908628 139.210835,41.7072539 C138.228285,41.5815905 137.247023,41.4565554 136.264473,41.3315203 C136.830535,42.7370655 137.452044,43.3301969 138.878161,43.9082486 C139.872961,44.3116281 140.913536,43.3082058 140.918049,42.3933761 C140.936746,38.4946687 140.800711,34.6078993 140.509298,30.719245 C140.359723,28.7155419 137.134842,28.6992057 137.285706,30.719245 C137.577119,34.6078993 137.713155,38.4946687 137.694458,42.3933761 C138.374636,41.8888375 139.054169,41.3836706 139.734991,40.8785037 C139.614429,40.7515836 139.493867,40.6240353 139.373304,40.4964869 C138.902015,39.3278171 137.140645,38.8276768 136.426942,40.1213816 L136.225145,40.3752217 L138.64993,41.7323866 C138.65122,41.176326 138.652509,40.619637 138.653799,40.0635764 C138.657667,38.1905633 136.117477,38.0655282 135.487587,39.6463739 C135.614596,39.6086749 135.742251,39.5709759 135.86926,39.5339051 C136.333457,39.7927718 136.79701,40.0522667 137.260562,40.3117617 C136.897586,39.7896302 137.167723,38.0768379 137.187709,37.3819192 C137.228971,35.9443297 135.43472,35.4127735 134.436051,36.2710546 C134.32516,36.3665588 132.656629,37.8707499 132.163419,37.6753433 L133.289097,38.7723849 C133.732019,38.2408286 134.148507,37.6904229 134.539206,37.1205393 C133.640469,36.6109742 132.742376,36.1020373 131.844928,35.5924722 C131.080937,35.9770022 130.317591,36.3621606 129.552955,36.7466906 C129.928181,37.3907156 130.303407,38.0347406 130.678633,38.6787656 C131.436822,36.6436466 132.478687,34.8428899 133.804872,33.1106198 C132.822966,32.9855847 131.84106,32.8599213 130.859154,32.7348862 C131.810758,37.5735559 133.151772,32.2479405 134.01634,31.2765623 C134.880262,30.3045558 136.061386,29.5656549 137.355981,29.2734875 C140.947062,28.4617018 143.118473,31.1521555 145.110008,33.5579815 C145.741187,34.3201301 150.288386,39.1424636 149.927343,39.696011 C149.538578,40.2910272 144.537498,39.9869218 143.76706,39.9668156 C141.692356,39.9127803 141.693646,43.0543657 143.76706,43.1084009" id="Fill-167" stroke="none" fill="#91D7F3" fill-rule="evenodd"></path>
                                    <path d="M152.139645,39.0628725 C152.162607,39.2361908 152.183655,39.4088671 152.20279,39.5821854 C152.130715,39.5886046 152.059279,39.5963076 151.98848,39.6020849 C152.059917,39.4377535 152.112856,39.258658 152.139645,39.0628725 M136.279411,39.4801202 C136.493721,39.3215661 136.680605,39.1553089 136.847078,38.9832745 L136.832408,39.545596 C136.583017,39.5648536 136.333626,39.5866788 136.083598,39.6040107 C136.148656,39.561644 136.215628,39.5276222 136.279411,39.4801202 M143.368233,25.4869172 C143.356752,25.4683015 143.344633,25.4509697 143.332514,25.4336379 C143.477939,25.5036071 143.622726,25.5742182 143.764962,25.6499647 C143.633569,25.5941177 143.500901,25.5401965 143.368233,25.4869172 M130.993091,37.0510968 C131.03455,37.2077252 131.099609,37.352799 131.183164,37.4843925 C130.855321,37.5132789 130.52365,37.535746 130.186239,37.5492264 C130.455402,37.3829692 130.724566,37.2167121 130.993091,37.0510968 M133.12854,31.0125602 C132.789853,31.2635507 132.472853,31.5248119 132.167971,31.79506 C131.998946,31.6576893 131.801857,31.5485629 131.590099,31.476026 C132.074848,31.2109133 132.588937,30.9888091 133.138107,30.8199843 C133.133005,30.8841763 133.129816,30.9477263 133.12854,31.0125602 M137.444085,21.007603 C126.562737,21.3317723 119.500066,30.9066434 117.535556,40.8647405 C117.175821,42.6877919 119.646129,43.5608024 120.42109,42.2153392 C120.633487,42.3289589 120.882878,42.4066312 121.169263,42.4406529 C126.912267,43.1185199 132.632948,43.1801441 138.389346,42.6261676 C139.00485,42.567111 139.525956,42.2570639 139.792568,41.754441 C140.06237,42.0054315 140.425932,42.1710467 140.864119,42.2069942 C142.331124,42.3289589 143.798129,42.4509236 145.265134,42.5728883 C145.99736,42.6332287 146.461699,42.2577058 146.667718,41.746096 C148.89884,43.1397032 151.707198,42.89449 154.328033,42.5157575 C154.98691,42.4201115 155.525237,41.6048737 155.499086,40.9680896 C155.088324,30.9413071 148.406437,20.6808659 137.444085,21.007603" id="Fill-169" stroke="none" fill="#B2E0FD" fill-rule="evenodd"></path>
                                    <path d="M165.5,43 L118.5,43 C118.5,30.2969797 129.021113,20 141.999362,20 C154.978887,20 165.5,30.2969797 165.5,43 Z" id="Stroke-171" stroke="#5E50BF" stroke-width="2.7" fill="none" stroke-linecap="round" stroke-linejoin="round"></path>
                                    <path d="M103.593068,158 C103.593068,158 103.383665,163.427405 103.593068,167.506496 C103.802471,171.585587 107.646218,177.095927 110.5,181" id="Stroke-173" stroke="#5E50BF" stroke-width="2.7" fill="none" stroke-linecap="round" stroke-linejoin="round"></path>
                                </g>
                            </g>
                        </g>
                    </g>
                </g>
            </g>
        </g>
    </g>
</svg>