<svg width="47" height="12" viewBox="0 0 47 12" fill="none" xmlns="http://www.w3.org/2000/svg">
<g clip-path="url(#clip0)">
<path d="M0 6C0 2.68629 2.68629 0 6 0H40.6667C43.9804 0 46.6667 2.68629 46.6667 6C46.6667 9.31373 43.9804 12 40.6667 12H6C2.68629 12 0 9.31373 0 6Z" fill="#EA001E"/>
<path d="M10.6933 8.66668H9.63733V6.17867H7.02133V8.66668H5.97333V3.00267H7.02133V5.33867H9.63733V3.00267H10.6933V8.66668ZM12.9495 8.66668H11.9495V4.50667H12.9495V8.66668ZM11.8375 3.21067C11.8375 2.82667 12.0429 2.63467 12.4535 2.63467C12.6722 2.63467 12.8295 2.68801 12.9255 2.79467C13.0215 2.90134 13.0695 3.04001 13.0695 3.21067C13.0695 3.37601 13.0189 3.51201 12.9175 3.61867C12.8215 3.72534 12.6669 3.77867 12.4535 3.77867C12.2349 3.77867 12.0775 3.72534 11.9815 3.61867C11.8855 3.51201 11.8375 3.37601 11.8375 3.21067ZM13.7113 9.43468C13.7113 8.99734 13.9567 8.63201 14.4473 8.33868C14.3353 8.26934 14.25 8.19201 14.1913 8.10667C14.1327 8.01601 14.1033 7.90667 14.1033 7.77868C14.1033 7.62934 14.154 7.49601 14.2553 7.37867C14.3567 7.26134 14.498 7.17601 14.6793 7.12267C14.21 6.87734 13.9753 6.46934 13.9753 5.89867C13.9753 5.43467 14.1353 5.06934 14.4553 4.80267C14.7807 4.53067 15.2233 4.39467 15.7833 4.39467C15.938 4.39467 16.0713 4.40534 16.1833 4.42667C16.2953 4.44267 16.4207 4.46934 16.5593 4.50667H18.0713V5.29867L17.2313 5.16267C17.3273 5.24801 17.402 5.36534 17.4553 5.51467C17.5087 5.65867 17.5353 5.82134 17.5353 6.00267C17.5353 6.42934 17.3807 6.76267 17.0713 7.00267C16.762 7.24267 16.3327 7.36267 15.7833 7.36267C15.5327 7.36267 15.3407 7.39201 15.2073 7.45067C15.0793 7.50401 15.0153 7.58134 15.0153 7.68267C15.0153 7.77334 15.0767 7.84534 15.1993 7.89867C15.322 7.94667 15.5167 7.97334 15.7833 7.97868C16.5193 8.00001 17.0633 8.10934 17.4153 8.30667C17.7673 8.50401 17.9433 8.80267 17.9433 9.20267C17.9433 9.69334 17.7407 10.0693 17.3353 10.3307C16.9353 10.592 16.37 10.7227 15.6393 10.7227C15.01 10.7227 14.53 10.6107 14.1993 10.3867C13.874 10.1627 13.7113 9.84534 13.7113 9.43468ZM16.6153 5.91467C16.6153 5.67467 16.5433 5.48267 16.3993 5.33867C16.2607 5.19467 16.0447 5.12267 15.7513 5.12267C15.49 5.12267 15.2793 5.19467 15.1193 5.33867C14.9647 5.47734 14.8873 5.65867 14.8873 5.88267C14.8873 6.12267 14.9593 6.31467 15.1033 6.45867C15.2473 6.59734 15.4633 6.66667 15.7513 6.66667C16.3273 6.66667 16.6153 6.41601 16.6153 5.91467ZM16.9513 9.30667C16.9513 9.10934 16.8127 8.96534 16.5353 8.87468C16.2633 8.78401 15.7913 8.73601 15.1193 8.73067C14.826 8.89601 14.6793 9.11201 14.6793 9.37867C14.6793 9.77868 15.0073 9.97868 15.6633 9.97868C16.0847 9.97868 16.4047 9.92001 16.6233 9.80268C16.842 9.69068 16.9513 9.52534 16.9513 9.30667ZM18.8558 3.00267H19.8558V4.96267H19.8718C20.1758 4.58401 20.6211 4.39467 21.2078 4.39467C21.7198 4.39467 22.0985 4.54134 22.3438 4.83467C22.5945 5.12801 22.7198 5.48801 22.7198 5.91467V8.66668H21.7198V6.13067C21.7198 5.86401 21.6531 5.64801 21.5198 5.48267C21.3918 5.31201 21.1758 5.22667 20.8718 5.22667C20.5625 5.22667 20.3145 5.33334 20.1278 5.54667C19.9465 5.76001 19.8558 6.02934 19.8558 6.35467V8.66668H18.8558V3.00267ZM29.2185 8.66668L28.0985 6.74667H27.1385V8.66668H26.0905V3.00267H28.0745C28.7092 3.00267 29.2239 3.16801 29.6185 3.49867C30.0132 3.82401 30.2105 4.29067 30.2105 4.89867C30.2105 5.69867 29.8292 6.24534 29.0665 6.53867L30.4185 8.66668H29.2185ZM28.0185 5.94667C28.3439 5.94667 28.6105 5.86134 28.8185 5.69067C29.0265 5.51467 29.1305 5.25067 29.1305 4.89867C29.1305 4.54134 29.0239 4.27734 28.8105 4.10667C28.5972 3.93067 28.3279 3.84267 28.0025 3.84267H27.1305V5.94667H28.0185ZM32.2151 8.66668H31.2151V4.50667H32.2151V8.66668ZM31.1031 3.21067C31.1031 2.82667 31.3085 2.63467 31.7191 2.63467C31.9378 2.63467 32.0951 2.68801 32.1911 2.79467C32.2871 2.90134 32.3351 3.04001 32.3351 3.21067C32.3351 3.37601 32.2845 3.51201 32.1831 3.61867C32.0871 3.72534 31.9325 3.77867 31.7191 3.77867C31.5005 3.77867 31.3431 3.72534 31.2471 3.61867C31.1511 3.51201 31.1031 3.37601 31.1031 3.21067ZM36.2169 4.83467L35.8169 5.46667C35.4916 5.26401 35.1636 5.16267 34.8329 5.16267C34.6196 5.16267 34.4543 5.20001 34.3369 5.27467C34.2196 5.34401 34.1609 5.44534 34.1609 5.57867C34.1609 5.69067 34.1876 5.78134 34.2409 5.85067C34.2943 5.91467 34.3796 5.97067 34.4969 6.01867C34.6196 6.06667 34.8063 6.12001 35.0569 6.17867C35.4623 6.28001 35.7663 6.43201 35.9689 6.63467C36.1769 6.83201 36.2809 7.09334 36.2809 7.41867C36.2809 7.85601 36.1156 8.19201 35.7849 8.42668C35.4543 8.66134 35.0489 8.77868 34.5689 8.77868C33.9556 8.77868 33.4436 8.62134 33.0329 8.30667L33.4649 7.68267C33.6356 7.78934 33.8036 7.86934 33.9689 7.92267C34.1396 7.97601 34.3236 8.00267 34.5209 8.00267C34.7503 8.00267 34.9263 7.96001 35.0489 7.87468C35.1769 7.78934 35.2409 7.66134 35.2409 7.49067C35.2409 7.37867 35.2143 7.29068 35.1609 7.22668C35.1076 7.16267 35.0223 7.10668 34.9049 7.05867C34.7876 7.01067 34.6063 6.95734 34.3609 6.89867C33.9503 6.79734 33.6463 6.64801 33.4489 6.45067C33.2569 6.25334 33.1609 5.98401 33.1609 5.64267C33.1609 5.25334 33.3103 4.94934 33.6089 4.73067C33.9076 4.50667 34.3023 4.39467 34.7929 4.39467C35.3476 4.39467 35.8223 4.54134 36.2169 4.83467ZM38.5125 6.85868L38.1605 7.18667V8.66668H37.1605V3.00267H38.1605V6.05867L39.8245 4.50667H41.0085L39.2005 6.21067L41.1445 8.66668H39.9125L38.5125 6.85868Z" fill="white"/>
</g>
<defs>
<clipPath id="clip0">
<rect width="46.6667" height="12" fill="white"/>
</clipPath>
</defs>
</svg>
