<svg width="62" height="12" viewBox="0 0 62 12" fill="none" xmlns="http://www.w3.org/2000/svg">
<g clip-path="url(#clip0)">
<path d="M0 6C0 2.68629 2.68629 0 6 0H55.3333C58.6471 0 61.3333 2.68629 61.3333 6C61.3333 9.31373 58.6471 12 55.3333 12H6C2.68629 12 0 9.31373 0 6Z" fill="#FF9A3C"/>
<path d="M12.1973 8.66666H11.1733L11.1973 4.21066H11.1813L9.43733 8.66666H8.65333L6.93333 4.21066H6.91733L6.94933 8.66666H5.97333V3.00266H7.50933L9.05333 7.22666H9.06933L10.6533 3.00266H12.1973V8.66666ZM17.0971 6.95466H14.2011C14.2438 7.28533 14.3611 7.54133 14.5531 7.72266C14.7505 7.89866 15.0198 7.98666 15.3611 7.98666C15.5958 7.98666 15.8011 7.95733 15.9771 7.89866C16.1585 7.83466 16.3505 7.73866 16.5531 7.61066L16.9851 8.25066C16.7451 8.42666 16.4865 8.55999 16.2091 8.65066C15.9371 8.73599 15.6331 8.77866 15.2971 8.77866C14.8598 8.77866 14.4838 8.68799 14.1691 8.50666C13.8545 8.32533 13.6118 8.06933 13.4411 7.73866C13.2758 7.40799 13.1931 7.02399 13.1931 6.58666C13.1931 5.92533 13.3665 5.39466 13.7131 4.99466C14.0651 4.59466 14.5611 4.39466 15.2011 4.39466C15.8305 4.39466 16.3078 4.59199 16.6331 4.98666C16.9585 5.38133 17.1211 5.91199 17.1211 6.57866C17.1211 6.70666 17.1131 6.83199 17.0971 6.95466ZM16.1371 6.20266C16.1265 5.89333 16.0411 5.63999 15.8811 5.44266C15.7265 5.24533 15.4971 5.14666 15.1931 5.14666C14.8838 5.14666 14.6438 5.24799 14.4731 5.45066C14.3078 5.64799 14.2145 5.89866 14.1931 6.20266H16.1371ZM21.9939 8.66666H21.0659C21.0286 8.45866 21.0073 8.28533 21.0019 8.14666H20.9859C20.8313 8.35999 20.6419 8.51999 20.4179 8.62666C20.1939 8.72799 19.9166 8.77866 19.5859 8.77866C18.9993 8.77866 18.5593 8.57866 18.2659 8.17866C17.9726 7.77866 17.8259 7.25599 17.8259 6.61066C17.8259 6.19999 17.9033 5.82666 18.0579 5.49066C18.2126 5.15466 18.4339 4.88799 18.7219 4.69066C19.0153 4.49333 19.3593 4.39466 19.7539 4.39466C20.2286 4.39466 20.6206 4.53333 20.9299 4.81066V3.00266H21.9299V7.71466C21.9299 7.96533 21.9513 8.28266 21.9939 8.66666ZM20.9299 6.85066V5.63466C20.6579 5.34666 20.3166 5.20266 19.9059 5.20266C19.5753 5.20266 19.3193 5.33066 19.1379 5.58666C18.9566 5.83733 18.8659 6.17866 18.8659 6.61066C18.8659 7.05333 18.9539 7.39466 19.1299 7.63466C19.3113 7.86933 19.5539 7.98666 19.8579 7.98666C20.1726 7.98666 20.4286 7.88266 20.6259 7.67466C20.8286 7.46133 20.9299 7.18666 20.9299 6.85066ZM24.1761 8.66666H23.1761V4.50666H24.1761V8.66666ZM23.0641 3.21066C23.0641 2.82666 23.2694 2.63466 23.6801 2.63466C23.8987 2.63466 24.0561 2.68799 24.1521 2.79466C24.2481 2.90133 24.2961 3.03999 24.2961 3.21066C24.2961 3.37599 24.2454 3.51199 24.1441 3.61866C24.0481 3.72533 23.8934 3.77866 23.6801 3.77866C23.4614 3.77866 23.3041 3.72533 23.2081 3.61866C23.1121 3.51199 23.0641 3.37599 23.0641 3.21066ZM25.3859 7.06666V4.50666H26.3939V6.91466C26.3939 7.24533 26.4605 7.50666 26.5939 7.69866C26.7272 7.89066 26.9405 7.98666 27.2339 7.98666C27.5485 7.98666 27.7965 7.87199 27.9779 7.64266C28.1645 7.40799 28.2579 7.11466 28.2579 6.76266V4.50666H29.2579V7.71466C29.2579 8.00266 29.2819 8.31999 29.3299 8.66666H28.3699C28.3325 8.47466 28.3112 8.31199 28.3059 8.17866H28.2899C27.9965 8.57866 27.5539 8.77866 26.9619 8.77866C26.4445 8.77866 26.0525 8.62133 25.7859 8.30666C25.5192 7.98666 25.3859 7.57333 25.3859 7.06666ZM30.5042 5.45866C30.5042 5.25599 30.4802 4.93866 30.4322 4.50666H31.3922C31.4242 4.67733 31.4455 4.83466 31.4562 4.97866H31.4722C31.6109 4.80266 31.7895 4.66133 32.0082 4.55466C32.2322 4.44799 32.4882 4.39466 32.7762 4.39466C33.3949 4.39466 33.8322 4.62399 34.0882 5.08266H34.1042C34.4189 4.62399 34.8802 4.39466 35.4882 4.39466C35.8349 4.39466 36.1229 4.47199 36.3522 4.62666C36.5869 4.77599 36.7575 4.97333 36.8642 5.21866C36.9762 5.46399 37.0322 5.72799 37.0322 6.01066V8.66666H36.0322V6.15466C36.0322 5.87199 35.9709 5.64533 35.8482 5.47466C35.7255 5.30399 35.5202 5.21866 35.2322 5.21866C34.9282 5.21866 34.6909 5.33599 34.5202 5.57066C34.3549 5.79999 34.2722 6.07999 34.2722 6.41066V8.66666H33.2642V6.07466C33.2642 5.83466 33.2002 5.63199 33.0722 5.46666C32.9442 5.30133 32.7415 5.21866 32.4642 5.21866C32.1655 5.21866 31.9309 5.32799 31.7602 5.54666C31.5895 5.75999 31.5042 6.02933 31.5042 6.35466V8.66666H30.5042V5.45866ZM43.5232 8.66666L42.4032 6.74666H41.4432V8.66666H40.3952V3.00266H42.3792C43.0139 3.00266 43.5285 3.16799 43.9232 3.49866C44.3179 3.82399 44.5152 4.29066 44.5152 4.89866C44.5152 5.69866 44.1339 6.24533 43.3712 6.53866L44.7232 8.66666H43.5232ZM42.3232 5.94666C42.6485 5.94666 42.9152 5.86133 43.1232 5.69066C43.3312 5.51466 43.4352 5.25066 43.4352 4.89866C43.4352 4.54133 43.3285 4.27733 43.1152 4.10666C42.9019 3.93066 42.6325 3.84266 42.3072 3.84266H41.4352V5.94666H42.3232ZM46.5199 8.66666H45.5199V4.50666H46.5199V8.66666ZM45.4079 3.21066C45.4079 2.82666 45.6132 2.63466 46.0239 2.63466C46.2425 2.63466 46.3999 2.68799 46.4959 2.79466C46.5919 2.90133 46.6399 3.03999 46.6399 3.21066C46.6399 3.37599 46.5892 3.51199 46.4879 3.61866C46.3919 3.72533 46.2372 3.77866 46.0239 3.77866C45.8052 3.77866 45.6479 3.72533 45.5519 3.61866C45.4559 3.51199 45.4079 3.37599 45.4079 3.21066ZM50.5217 4.83466L50.1217 5.46666C49.7963 5.26399 49.4683 5.16266 49.1377 5.16266C48.9243 5.16266 48.759 5.19999 48.6417 5.27466C48.5243 5.34399 48.4657 5.44533 48.4657 5.57866C48.4657 5.69066 48.4923 5.78133 48.5457 5.85066C48.599 5.91466 48.6843 5.97066 48.8017 6.01866C48.9243 6.06666 49.111 6.11999 49.3617 6.17866C49.767 6.27999 50.071 6.43199 50.2737 6.63466C50.4817 6.83199 50.5857 7.09333 50.5857 7.41866C50.5857 7.85599 50.4203 8.19199 50.0897 8.42666C49.759 8.66133 49.3537 8.77866 48.8737 8.77866C48.2603 8.77866 47.7483 8.62133 47.3377 8.30666L47.7697 7.68266C47.9403 7.78933 48.1083 7.86933 48.2737 7.92266C48.4443 7.97599 48.6283 8.00266 48.8257 8.00266C49.055 8.00266 49.231 7.95999 49.3537 7.87466C49.4817 7.78933 49.5457 7.66133 49.5457 7.49066C49.5457 7.37866 49.519 7.29066 49.4657 7.22666C49.4123 7.16266 49.327 7.10666 49.2097 7.05866C49.0923 7.01066 48.911 6.95733 48.6657 6.89866C48.255 6.79733 47.951 6.64799 47.7537 6.45066C47.5617 6.25333 47.4657 5.98399 47.4657 5.64266C47.4657 5.25333 47.615 4.94933 47.9137 4.73066C48.2123 4.50666 48.607 4.39466 49.0977 4.39466C49.6523 4.39466 50.127 4.54133 50.5217 4.83466ZM52.8171 6.85866L52.4651 7.18666V8.66666H51.4651V3.00266H52.4651V6.05866L54.1291 4.50666H55.3131L53.5051 6.21066L55.4491 8.66666H54.2171L52.8171 6.85866Z" fill="#080707"/>
</g>
<defs>
<clipPath id="clip0">
<rect width="61.3333" height="12" fill="white"/>
</clipPath>
</defs>
</svg>
