<svg width="47" height="12" viewBox="0 0 47 12" fill="none" xmlns="http://www.w3.org/2000/svg">
<path d="M0 6C0 2.68629 2.70548 0 6.04286 0H40.9571C44.2945 0 47 2.68629 47 6C47 9.31373 44.2945 12 40.9571 12H6.04286C2.70548 12 0 9.31373 0 6Z" fill="white"/>
<path d="M6.52778 1.2H40.4722V0H6.52778V1.2ZM40.4722 10.8H6.52778V12H40.4722V10.8ZM6.52778 10.8C3.64362 10.8 1.30556 8.65098 1.30556 6H0C0 9.31368 2.92258 12 6.52778 12V10.8ZM45.6944 6C45.6944 8.65098 43.3564 10.8 40.4722 10.8V12C44.0774 12 47 9.31368 47 6H45.6944ZM40.4722 1.2C43.3564 1.2 45.6944 3.34903 45.6944 6H47C47 2.68629 44.0774 0 40.4722 0V1.2ZM6.52778 0C2.92258 0 0 2.68629 0 6H1.30556C1.30556 3.34903 3.64362 1.2 6.52778 1.2V0Z" fill="#EA001E"/>
<path d="M10.72 8.532H9.664V6.044H7.048V8.532H6V2.868H7.048V5.204H9.664V2.868H10.72V8.532ZM12.9762 8.532H11.9762V4.372H12.9762V8.532ZM11.8642 3.076C11.8642 2.692 12.0695 2.5 12.4802 2.5C12.6989 2.5 12.8562 2.55333 12.9522 2.66C13.0482 2.76667 13.0962 2.90533 13.0962 3.076C13.0962 3.24133 13.0455 3.37733 12.9442 3.484C12.8482 3.59067 12.6935 3.644 12.4802 3.644C12.2615 3.644 12.1042 3.59067 12.0082 3.484C11.9122 3.37733 11.8642 3.24133 11.8642 3.076ZM13.738 9.3C13.738 8.86267 13.9833 8.49733 14.474 8.204C14.362 8.13467 14.2767 8.05733 14.218 7.972C14.1593 7.88133 14.13 7.772 14.13 7.644C14.13 7.49467 14.1807 7.36133 14.282 7.244C14.3833 7.12667 14.5247 7.04133 14.706 6.988C14.2367 6.74267 14.002 6.33467 14.002 5.764C14.002 5.3 14.162 4.93467 14.482 4.668C14.8073 4.396 15.25 4.26 15.81 4.26C15.9647 4.26 16.098 4.27067 16.21 4.292C16.322 4.308 16.4473 4.33467 16.586 4.372H18.098V5.164L17.258 5.028C17.354 5.11333 17.4287 5.23067 17.482 5.38C17.5353 5.524 17.562 5.68667 17.562 5.868C17.562 6.29467 17.4073 6.628 17.098 6.868C16.7887 7.108 16.3593 7.228 15.81 7.228C15.5593 7.228 15.3673 7.25733 15.234 7.316C15.106 7.36933 15.042 7.44667 15.042 7.548C15.042 7.63867 15.1033 7.71067 15.226 7.764C15.3487 7.812 15.5433 7.83867 15.81 7.844C16.546 7.86533 17.09 7.97467 17.442 8.172C17.794 8.36933 17.97 8.668 17.97 9.068C17.97 9.55867 17.7673 9.93467 17.362 10.196C16.962 10.4573 16.3967 10.588 15.666 10.588C15.0367 10.588 14.5567 10.476 14.226 10.252C13.9007 10.028 13.738 9.71067 13.738 9.3ZM16.642 5.78C16.642 5.54 16.57 5.348 16.426 5.204C16.2873 5.06 16.0713 4.988 15.778 4.988C15.5167 4.988 15.306 5.06 15.146 5.204C14.9913 5.34267 14.914 5.524 14.914 5.748C14.914 5.988 14.986 6.18 15.13 6.324C15.274 6.46267 15.49 6.532 15.778 6.532C16.354 6.532 16.642 6.28133 16.642 5.78ZM16.978 9.172C16.978 8.97467 16.8393 8.83067 16.562 8.74C16.29 8.64933 15.818 8.60133 15.146 8.596C14.8527 8.76133 14.706 8.97733 14.706 9.244C14.706 9.644 15.034 9.844 15.69 9.844C16.1113 9.844 16.4313 9.78533 16.65 9.668C16.8687 9.556 16.978 9.39067 16.978 9.172ZM18.8825 2.868H19.8825V4.828H19.8985C20.2025 4.44933 20.6478 4.26 21.2345 4.26C21.7465 4.26 22.1251 4.40667 22.3705 4.7C22.6211 4.99333 22.7465 5.35333 22.7465 5.78V8.532H21.7465V5.996C21.7465 5.72933 21.6798 5.51333 21.5465 5.348C21.4185 5.17733 21.2025 5.092 20.8985 5.092C20.5891 5.092 20.3411 5.19867 20.1545 5.412C19.9731 5.62533 19.8825 5.89467 19.8825 6.22V8.532H18.8825V2.868ZM29.2452 8.532L28.1252 6.612H27.1652V8.532H26.1172V2.868H28.1012C28.7359 2.868 29.2505 3.03333 29.6452 3.364C30.0399 3.68933 30.2372 4.156 30.2372 4.764C30.2372 5.564 29.8559 6.11067 29.0932 6.404L30.4452 8.532H29.2452ZM28.0452 5.812C28.3705 5.812 28.6372 5.72667 28.8452 5.556C29.0532 5.38 29.1572 5.116 29.1572 4.764C29.1572 4.40667 29.0505 4.14267 28.8372 3.972C28.6239 3.796 28.3545 3.708 28.0292 3.708H27.1572V5.812H28.0452ZM32.2418 8.532H31.2418V4.372H32.2418V8.532ZM31.1298 3.076C31.1298 2.692 31.3351 2.5 31.7458 2.5C31.9645 2.5 32.1218 2.55333 32.2178 2.66C32.3138 2.76667 32.3618 2.90533 32.3618 3.076C32.3618 3.24133 32.3111 3.37733 32.2098 3.484C32.1138 3.59067 31.9591 3.644 31.7458 3.644C31.5271 3.644 31.3698 3.59067 31.2738 3.484C31.1778 3.37733 31.1298 3.24133 31.1298 3.076ZM36.2436 4.7L35.8436 5.332C35.5183 5.12933 35.1903 5.028 34.8596 5.028C34.6463 5.028 34.4809 5.06533 34.3636 5.14C34.2463 5.20933 34.1876 5.31067 34.1876 5.444C34.1876 5.556 34.2143 5.64667 34.2676 5.716C34.3209 5.78 34.4063 5.836 34.5236 5.884C34.6463 5.932 34.8329 5.98533 35.0836 6.044C35.4889 6.14533 35.7929 6.29733 35.9956 6.5C36.2036 6.69733 36.3076 6.95867 36.3076 7.284C36.3076 7.72133 36.1423 8.05733 35.8116 8.292C35.4809 8.52667 35.0756 8.644 34.5956 8.644C33.9823 8.644 33.4703 8.48667 33.0596 8.172L33.4916 7.548C33.6623 7.65467 33.8303 7.73467 33.9956 7.788C34.1663 7.84133 34.3503 7.868 34.5476 7.868C34.7769 7.868 34.9529 7.82533 35.0756 7.74C35.2036 7.65467 35.2676 7.52667 35.2676 7.356C35.2676 7.244 35.2409 7.156 35.1876 7.092C35.1343 7.028 35.0489 6.972 34.9316 6.924C34.8143 6.876 34.6329 6.82267 34.3876 6.764C33.9769 6.66267 33.6729 6.51333 33.4756 6.316C33.2836 6.11867 33.1876 5.84933 33.1876 5.508C33.1876 5.11867 33.3369 4.81467 33.6356 4.596C33.9343 4.372 34.3289 4.26 34.8196 4.26C35.3743 4.26 35.8489 4.40667 36.2436 4.7ZM38.5391 6.724L38.1871 7.052V8.532H37.1871V2.868H38.1871V5.924L39.8511 4.372H41.0351L39.2271 6.076L41.1711 8.532H39.9391L38.5391 6.724Z" fill="#EA001E"/>
</svg>
