<svg width="67" height="22" viewBox="0 0 67 22" fill="none" xmlns="http://www.w3.org/2000/svg">
<path d="M0 11C0 4.92487 4.92487 0 11 0H56C62.0751 0 67 4.92487 67 11C67 17.0751 62.0751 22 56 22H11C4.92487 22 0 17.0751 0 11Z" fill="#04844B"/>
<path d="M10.532 13.692H14.204V15H8.96V6.504H10.532V13.692ZM21.1489 11.856C21.1489 12.504 21.0169 13.08 20.7529 13.584C20.4969 14.08 20.1209 14.468 19.6249 14.748C19.1369 15.028 18.5609 15.168 17.8969 15.168C17.2329 15.168 16.6569 15.028 16.1689 14.748C15.6809 14.46 15.3049 14.068 15.0409 13.572C14.7849 13.068 14.6569 12.496 14.6569 11.856C14.6569 11.2 14.7849 10.628 15.0409 10.14C15.2969 9.652 15.6649 9.272 16.1449 9C16.6329 8.728 17.2169 8.592 17.8969 8.592C18.5769 8.592 19.1609 8.728 19.6489 9C20.1369 9.272 20.5089 9.652 20.7649 10.14C21.0209 10.628 21.1489 11.2 21.1489 11.856ZM16.2169 11.856C16.2169 12.496 16.3489 13.012 16.6129 13.404C16.8849 13.788 17.3169 13.98 17.9089 13.98C18.5009 13.98 18.9329 13.788 19.2049 13.404C19.4769 13.012 19.6129 12.496 19.6129 11.856C19.6129 11.224 19.4769 10.724 19.2049 10.356C18.9329 9.98 18.4969 9.792 17.8969 9.792C17.3049 9.792 16.8769 9.98 16.6129 10.356C16.3489 10.724 16.2169 11.224 16.2169 11.856ZM29.6075 15H27.9755L26.5595 10.392H26.5355L25.1555 15H23.5355L21.7955 8.76H23.3795L24.4115 13.332H24.4355L25.8035 8.76H27.3635L28.7435 13.332H28.7675L29.8235 8.76H31.3475L29.6075 15ZM40.3356 15L38.6556 12.12H37.2156V15H35.6436V6.504H38.6196C39.5716 6.504 40.3436 6.752 40.9356 7.248C41.5276 7.736 41.8236 8.436 41.8236 9.348C41.8236 10.548 41.2516 11.368 40.1076 11.808L42.1356 15H40.3356ZM38.5356 10.92C39.0236 10.92 39.4236 10.792 39.7356 10.536C40.0476 10.272 40.2036 9.876 40.2036 9.348C40.2036 8.812 40.0436 8.416 39.7236 8.16C39.4036 7.896 38.9996 7.764 38.5116 7.764H37.2036V10.92H38.5356ZM44.8305 15H43.3305V8.76H44.8305V15ZM43.1625 6.816C43.1625 6.24 43.4705 5.952 44.0865 5.952C44.4145 5.952 44.6505 6.032 44.7945 6.192C44.9385 6.352 45.0105 6.56 45.0105 6.816C45.0105 7.064 44.9345 7.268 44.7825 7.428C44.6385 7.588 44.4065 7.668 44.0865 7.668C43.7585 7.668 43.5225 7.588 43.3785 7.428C43.2345 7.268 43.1625 7.064 43.1625 6.816ZM50.8333 9.252L50.2333 10.2C49.7453 9.896 49.2533 9.744 48.7573 9.744C48.4373 9.744 48.1893 9.8 48.0133 9.912C47.8373 10.016 47.7493 10.168 47.7493 10.368C47.7493 10.536 47.7893 10.672 47.8693 10.776C47.9493 10.872 48.0773 10.956 48.2533 11.028C48.4373 11.1 48.7173 11.18 49.0933 11.268C49.7013 11.42 50.1573 11.648 50.4613 11.952C50.7733 12.248 50.9293 12.64 50.9293 13.128C50.9293 13.784 50.6813 14.288 50.1853 14.64C49.6893 14.992 49.0813 15.168 48.3613 15.168C47.4413 15.168 46.6733 14.932 46.0573 14.46L46.7053 13.524C46.9613 13.684 47.2133 13.804 47.4613 13.884C47.7173 13.964 47.9933 14.004 48.2893 14.004C48.6333 14.004 48.8973 13.94 49.0813 13.812C49.2733 13.684 49.3693 13.492 49.3693 13.236C49.3693 13.068 49.3293 12.936 49.2493 12.84C49.1693 12.744 49.0413 12.66 48.8652 12.588C48.6893 12.516 48.4173 12.436 48.0493 12.348C47.4333 12.196 46.9773 11.972 46.6813 11.676C46.3933 11.38 46.2493 10.976 46.2493 10.464C46.2493 9.88 46.4733 9.424 46.9213 9.096C47.3693 8.76 47.9613 8.592 48.6973 8.592C49.5293 8.592 50.2413 8.812 50.8333 9.252ZM54.2765 12.288L53.7485 12.78V15H52.2485V6.504H53.7485V11.088L56.2445 8.76H58.0205L55.3085 11.316L58.2245 15H56.3765L54.2765 12.288Z" fill="white"/>
</svg>
