<svg width="40" height="12" viewBox="0 0 40 12" fill="none" xmlns="http://www.w3.org/2000/svg">
<path d="M0 6C0 2.68629 2.68629 0 6 0H34C37.3137 0 40 2.68629 40 6C40 9.31373 37.3137 12 34 12H6C2.68629 12 0 9.31373 0 6Z" fill="#04844B"/>
<path d="M5.97333 3.00267H7.16533L9.96533 7.22667H9.98133L9.95733 3.00267H10.9253V8.66667H9.73333L6.93333 4.43467H6.91733L6.94933 8.66667H5.97333V3.00267ZM16.2477 6.57067C16.2477 7.00267 16.1597 7.38667 15.9837 7.72267C15.8131 8.05333 15.5624 8.312 15.2317 8.49867C14.9064 8.68533 14.5224 8.77867 14.0797 8.77867C13.6371 8.77867 13.2531 8.68533 12.9277 8.49867C12.6024 8.30667 12.3517 8.04533 12.1757 7.71467C12.0051 7.37867 11.9197 6.99733 11.9197 6.57067C11.9197 6.13333 12.0051 5.752 12.1757 5.42667C12.3464 5.10133 12.5917 4.848 12.9117 4.66667C13.2371 4.48533 13.6264 4.39467 14.0797 4.39467C14.5331 4.39467 14.9224 4.48533 15.2477 4.66667C15.5731 4.848 15.8211 5.10133 15.9917 5.42667C16.1624 5.752 16.2477 6.13333 16.2477 6.57067ZM12.9597 6.57067C12.9597 6.99733 13.0477 7.34133 13.2237 7.60267C13.4051 7.85867 13.6931 7.98667 14.0877 7.98667C14.4824 7.98667 14.7704 7.85867 14.9517 7.60267C15.1331 7.34133 15.2237 6.99733 15.2237 6.57067C15.2237 6.14933 15.1331 5.816 14.9517 5.57067C14.7704 5.32 14.4797 5.19467 14.0797 5.19467C13.6851 5.19467 13.3997 5.32 13.2237 5.57067C13.0477 5.816 12.9597 6.14933 12.9597 6.57067ZM22.5232 8.66667L21.4032 6.74667H20.4432V8.66667H19.3952V3.00267H21.3792C22.0139 3.00267 22.5285 3.168 22.9232 3.49867C23.3179 3.824 23.5152 4.29067 23.5152 4.89867C23.5152 5.69867 23.1339 6.24533 22.3712 6.53867L23.7232 8.66667H22.5232ZM21.3232 5.94667C21.6485 5.94667 21.9152 5.86133 22.1232 5.69067C22.3312 5.51467 22.4352 5.25067 22.4352 4.89867C22.4352 4.54133 22.3285 4.27733 22.1152 4.10667C21.9019 3.93067 21.6325 3.84267 21.3072 3.84267H20.4352V5.94667H21.3232ZM25.5199 8.66667H24.5199V4.50667H25.5199V8.66667ZM24.4079 3.21067C24.4079 2.82667 24.6132 2.63467 25.0239 2.63467C25.2425 2.63467 25.3999 2.688 25.4959 2.79467C25.5919 2.90133 25.6399 3.04 25.6399 3.21067C25.6399 3.376 25.5892 3.512 25.4879 3.61867C25.3919 3.72533 25.2372 3.77867 25.0239 3.77867C24.8052 3.77867 24.6479 3.72533 24.5519 3.61867C24.4559 3.512 24.4079 3.376 24.4079 3.21067ZM29.5217 4.83467L29.1217 5.46667C28.7963 5.264 28.4683 5.16267 28.1377 5.16267C27.9243 5.16267 27.759 5.2 27.6417 5.27467C27.5243 5.344 27.4657 5.44533 27.4657 5.57867C27.4657 5.69067 27.4923 5.78133 27.5457 5.85067C27.599 5.91467 27.6843 5.97067 27.8017 6.01867C27.9243 6.06667 28.111 6.12 28.3617 6.17867C28.767 6.28 29.071 6.432 29.2737 6.63467C29.4817 6.832 29.5857 7.09333 29.5857 7.41867C29.5857 7.856 29.4203 8.192 29.0897 8.42667C28.759 8.66133 28.3537 8.77867 27.8737 8.77867C27.2603 8.77867 26.7483 8.62133 26.3377 8.30667L26.7697 7.68267C26.9403 7.78933 27.1083 7.86933 27.2737 7.92267C27.4443 7.976 27.6283 8.00267 27.8257 8.00267C28.055 8.00267 28.231 7.96 28.3537 7.87467C28.4817 7.78933 28.5457 7.66133 28.5457 7.49067C28.5457 7.37867 28.519 7.29067 28.4657 7.22667C28.4123 7.16267 28.327 7.10667 28.2097 7.05867C28.0923 7.01067 27.911 6.95733 27.6657 6.89867C27.255 6.79733 26.951 6.648 26.7537 6.45067C26.5617 6.25333 26.4657 5.984 26.4657 5.64267C26.4657 5.25333 26.615 4.94933 26.9137 4.73067C27.2123 4.50667 27.607 4.39467 28.0977 4.39467C28.6523 4.39467 29.127 4.54133 29.5217 4.83467ZM31.8171 6.85867L31.4651 7.18667V8.66667H30.4651V3.00267H31.4651V6.05867L33.1291 4.50667H34.3131L32.5051 6.21067L34.4491 8.66667H33.2171L31.8171 6.85867Z" fill="white"/>
</svg>
