<?xml version="1.0" encoding="UTF-8"?>
<svg width="24px" height="24px" viewBox="0 0 24 24" version="1.1" xmlns="http://www.w3.org/2000/svg" xmlns:xlink="http://www.w3.org/1999/xlink">
    <!-- Generator: sketchtool 57 (101010) - https://sketch.com -->
    <title>6A2A1C0A-87D3-4D96-81AA-3B3E5C8F2B26</title>
    <desc>Created with sketchtool.</desc>
    <g id="Asset-Artboard-Page" stroke="none" stroke-width="1" fill="none" fill-rule="evenodd">
        <g id="Icons-/-System-/-Ellipsis" fill="#0064D2">
            <path d="M19.5,10 C20.3284271,10 21,10.6715729 21,11.5 C21,12.3284271 20.3284271,13 19.5,13 C18.6715729,13 18,12.3284271 18,11.5 C18,10.6715729 18.6715729,10 19.5,10 Z M4.5,10 C5.32842712,10 6,10.6715729 6,11.5 C6,12.3284271 5.32842712,13 4.5,13 C3.67157288,13 3,12.3284271 3,11.5 C3,10.6715729 3.67157288,10 4.5,10 Z M12,10 C12.8284271,10 13.5,10.6715729 13.5,11.5 C13.5,12.3284271 12.8284271,13 12,13 C11.1715729,13 10.5,12.3284271 10.5,11.5 C10.5,10.6715729 11.1715729,10 12,10 Z" id="Combined-Shape"></path>
        </g>
    </g>
</svg>